<!--?xml version="1.0" encoding="utf-8"?-->
<!-- Generator: Adobe Illustrator 22.1.0, SVG Export Plug-In . SVG Version: 6.00 Build 0)  -->
<svg version="1.1" id="_x34_" xmlns="http://www.w3.org/2000/svg" xmlns:xlink="http://www.w3.org/1999/xlink" x="0px" y="0px" viewBox="0 0 800 795.2" style="enable-background:new 0 0 800 795.2;" xml:space="preserve">
<style type="text/css">
	.st0{fill:#C30D23;}
</style>
<g>
	<path class="st0" d="M775.9,696.2c1-3.5,4.1-6,6.8-8.1l1-0.8c0.2-0.1,0.3-0.2,0.5-0.4l0.5-0.6c0.6-0.8,1.2-1.6,1.6-2.4
		c0.9-1.6,1.4-3.2,1.2-4.8c-0.1-0.3-0.3-0.6-0.5-0.9c0.8-0.9,1.2-2.2,1.2-3.6c0-0.7,0-1.5-0.1-2.2c0-0.4-0.1-0.7-0.1-1.1
		c-0.1-0.4-0.1-0.7-0.1-0.9c-0.2-1.6-0.6-2.6,0.1-1.5c-2.8-4.1-3.2-4.8-1.9-9.5c0.9-0.9,1.5-1.3,1.8-1.7c0.4-0.4,0.5-0.6,0.5-1
		l0.2-4.2c0.1-2,0.2-3.9,0.3-5.9l0.6-8.3l-0.7-5.7l-0.4-3.4c-0.3-2.3-0.5-4.5-0.9-6.8l-0.7-5l0.4-7.8l0.3-5.4l0.2-3.5
		c0.1-1.3,0.1-2.7,0.2-4.2c0.1-5.2,0.2-8.6,0.3-11.5l0.2-4c0.1-1.8,0.1-1.4,0.1-1.8l0.1-0.4l0-0.1l0-0.2l0.1-0.6l0.3-1.3l1.2-6.3
		l2.8-14.4l-3.6-21.6l0-0.2l2.5-18.2l0.4-9.1l0.3-6.9l0.1-3.1l0-1.4c0-0.2,0-0.1,0-0.2l0-0.1l0-0.1l0-0.1l0-0.1c0,0,0,0,0-0.1
		c0-0.4,0-0.9,0-1.3c0-0.8,0-1.6-0.1-2.4c-0.2-1.5-0.5-2.8-1-3.9c-1.1-2.2-3.2-3.5-6.7-3.9c-7.8-0.9-8.7-1.4-6.9-2.5
		c0.9-0.6,2.6-1.3,4.4-2.3c0.9-0.5,1.9-1.1,2.9-1.7c0.5-0.3,1-0.7,1.4-1.1c0.5-0.6,1-1.3,1.5-2c0.2-0.4,0.5-0.9,0.7-1.4l0.3-0.7
		c0.1-0.1,0.1-0.2,0.2-0.3l0.1-0.2c0.4-0.6,0.8-1.3,1-2c0.6-1.4,1-2.9,1-4.7c0.1-2,0.2-4,0.3-6.1l0.3-4.9l0.4-5.5l-2.6-9.1l-0.1-0.3
		l-0.1-0.2l-0.1-0.3l-0.2-0.7l-0.3-1.4l-0.6-2.7l-1.3-5.4l-0.2-0.7l0-0.2l0-0.1l0-0.1l0-0.3l0.1-0.6l0.3-0.8l0.1-0.2l0,0l0-0.2
		l0-0.4l0-1.7c0-2.3,0-4.6-0.1-6.8l-0.1-3.3l0.4-1.4l1.2-4.3l4.2-15.9l-0.3-2.7l-0.6-6.5l-0.3-3.4c-0.1-1.9-0.2-3.4-0.3-4.8l-0.2-4
		l-0.1-2l0-0.5l0-0.3l0-0.1l0,0l0-0.2l0-0.2l0-1l0-2.4c0-1.7,0-3.7-0.1-6.1c-0.2-7.5-0.4-11.3-0.7-15.1c-0.1-1.9-0.3-3.8-0.4-6.1
		l-0.2-3.9l-0.1-2.4l-0.1-2.9l0-1.6l-0.2-1.5l-0.1-0.7l-0.1-0.4c-0.1-0.5-0.2-1-0.3-1.5c-0.2-1-0.5-2-0.8-2.9
		c-0.6-1.8-1.4-3.5-2.2-5.1c-0.8-1.6-1.8-3.1-2.7-4.6c-0.5-1-0.9-0.9-1.3-1.3c-0.4-0.3-0.8-0.6-1.2-0.9c-0.4-0.4-0.8-0.9-1.1-1.4
		c-0.1-0.1-0.2-0.3-0.2-0.4c-0.1-0.2-0.1-0.5-0.1-0.8c-0.1-0.6-0.2-1.2-0.2-1.7c-0.2-2.4-0.2-4.9,0.3-7.7c1.2-7.5,4-9.5,6.9-11.5
		c2.8-2,5.7-4,6.7-11.6l0.9-6.1l-0.2-3.7l-0.1-1.7l0-0.9c0-1.2,0-2.2,0-3.2c0-1.9,0.1-3.6,0.1-5.3c0.1-3.5,0.1-7.2-0.1-14
		c-0.2-3.8-0.3-6.6-0.5-9l-0.3-3.2l-0.1-0.8l-0.1-1.3l-0.2-2.6l-0.5-2.5l-0.3-1.3l-0.2-0.8l-0.7-3.1c-0.5-2.3-1.1-5-1.7-8.7
		c-0.1-0.6-0.2-1.2-0.4-1.8l-0.2-0.8l-0.1-0.2l0,0l-0.1-0.1c-0.2-0.2-0.4-0.3-0.7-0.5c-0.3-0.2-0.7-0.4-1.2-0.6l-0.4-0.2l-0.4-0.6
		c-0.2-0.4-0.5-0.7-0.7-1.1c-1-1.3-2.1-2.4-2.9-3.2c-1.7-1.7-2.5-2.9-0.2-5c1.3-1.2,2.4-2.4,3.4-3.7c0.5-0.6,0.9-1.3,1.3-1.9
		l0.3-0.5l0.1-0.1l0.1-0.2l0.1-0.4c0.2-0.6,0.4-1.1,0.6-1.7c0.2-0.7,0.3-1.5,0.4-2.2c0-0.2,0.1-0.3,0.1-0.4l0.1-0.3l0.2-0.6
		c0.2-0.8,0.4-1.7,0.6-2.6c0.3-1.7,0.4-3.4,0.5-5.2c0-1.7-0.1-3.5-0.2-5.3l-0.1-1.3l-0.1-0.7c0-0.2,0-0.2,0-0.2l0-0.1l-0.2-0.4
		l-0.2-0.5l0,0l0,0l0-0.1l0-0.4l0.1-0.8l0.1-1.5c0.2-2,0.4-4.1,0.8-6.2l2-12l-1.7-20.1l0-0.1l5.9-26.4l-8.1-14.4l-2.9-5.2l-0.4-0.7
		l-0.2-0.3l0-0.1l-0.2-0.2c-0.2-0.3-0.4-0.5-0.6-0.8l-0.2-0.7l-0.1-0.4l-0.1-0.2l-0.2-1.7c-0.5-5.2-1.1-11.4-1.8-20.7
		c-0.1-1.5-0.3-3-0.4-4.5c-5.7-3.2-11.2-5.7-16.5-7.9c-2.7-1.1-5.2-2-7.8-3l-7.5-2.7l-1.6-0.4l-0.8-0.2c-0.2,0-0.2,0-0.3-0.1l-0.3,0
		l-2.1-0.3c-1.4-0.2-2.8-0.5-4.2-0.9c-1.4-0.3-2.8-0.8-4.2-1.2c-0.7-0.2-1.4-0.5-2.1-0.8l-1.1-0.5l-0.5-0.2l-0.8-0.4
		c-1-0.5-2-1-2.8-1.4c-1.1-0.4-2.1-0.7-3-1.1l-0.6-0.3c-0.2-0.1-0.3-0.1-0.4-0.2c-0.2-0.1-0.5-0.3-0.7-0.4c-0.9-0.5-1.5-1.1-1.9-1.6
		c-0.9-1.1-1.2-2.2-1.5-3.4c-0.3-1.1-0.7-2.3-1.9-3.4c-0.6-0.5-1.4-1.1-2.5-1.6c-0.5-0.3-1.1-0.5-1.8-0.8l-0.3-0.1l-0.5-0.2l-1-0.3
		l-2.2-0.7l-2.2-0.6l-6.4-0.4l-3.1-0.3c-1.9-0.2-3.4-0.3-4.9-0.5l-4.3-0.5l-0.6-0.1l-1-0.1l-2.2-0.2l-4.8-0.4l-11.4,2.4l-6.4,1.4
		l-0.9,0.2l-1.1-0.3l-9.6-2.3l-6.9-1.6l-5.6-0.2l-2.7-0.1l-4.6-0.1l-4.6-0.1l-2.7-0.1L619,4.2L612.4,5c-4.2,0.4-7.2,0.8-9.7,1.2
		l-3.4,0.5l-0.8,0.1c-0.1,0-0.1,0-0.1,0l0,0l-0.1,0L598,7L597.7,7l-0.1,0l-0.1,0l-0.4,0l-3,0c-2.2,0-4.8-0.1-8.2-0.2l-10-0.5
		c-3.5,0.6-7.1,1.3-8.1,1.4l-4.4,0.6c-1.5,0.2-3,0.4-4.9,0.7l-3,0.5l-1.7,0.3c-0.2,0-0.2,0-0.4,0.1c-0.1,0-0.2,0-0.3,0
		c-5,0.4-8.4,0.7-11.2,1c-1.9,0.2-1.5,0.2-1.8,0.3c-0.2,0.1-0.5,0.1-0.8,0.2c-0.3,0-0.6-0.1-0.9-0.2l-0.3-0.1l-0.5-0.2l-0.7-0.3
		l-3.3-1.1l-8-2.8l-8-2.9L504,5.6l-4.8,0.5l-6,0.8l-0.3,0l-6-0.3l-5.7-0.3c-3.6-0.2-7.4-0.4-14.6-0.6c-3.2-0.1-5.8-0.1-7.9-0.1
		l-8.1,0l-5.7,1.2l-3.5,0.8c-1.3,0.3-2.6,0.5-4.2,0.9l-3.7,0.7c-0.3,0.1-0.6,0.2-0.9,0.5c-0.9,0.6-1.4,2.5-2.2,4.2
		c-0.1,0.2-0.2,0.4-0.3,0.6l-0.2,0.3l-0.1,0.1l-0.2,0.1c-0.5,0.3-1.1,0.5-1.9,0.7c-0.8,0.1-1.7,0.2-2.8,0.1l-0.4,0
		c-0.1,0-0.4-0.1-0.6-0.1l-1.5-0.3c-1-0.2-2.2-0.5-3.4-0.8c-3.2-0.8-6.3-1.8-9.3-3c-2.9,0.8-5.8,1.4-8.7,1.9
		c-1.5,0.3-2.9,0.5-4.4,0.8c-0.7,0.1-1.5,0.3-2.2,0.3l-1.4,0c-1.7-0.7-2.9-1.7-3.7-2.5c-0.4-0.7-0.8-1.3-1.1-1.7
		c-0.2-0.2-0.3-0.4-0.5-0.5c-0.1-0.1-0.2-0.1-0.2-0.2l-0.1,0l-0.4-0.1l-0.8-0.3l-13.7-4.4l-24.3,0.9c-5.5,0-8.9-0.1-11.9,0l-4.2,0
		l-8.7,0l-12.1,3.6l-7.3,2.1l-0.3,0.1l-0.3,0.1l-0.5,0.1l-0.7-0.1l-0.3,0l-1.7-0.1c-2.6-0.2-5.8-0.3-10.3-0.6
		c-3.8-0.2-6.6-0.3-8.9-0.4l-6.1-0.3l-6.1-0.3c-1.2-0.1-2.5-0.1-3.9-0.2l-4.9-0.3c-3.8-0.3-6.6-0.4-8.9-0.5l-3.2-0.1l-1.5,0
		l-2.6-0.1l-2.5,0.1l-1.5,0.1l-3.2,0.2c-2.3,0.1-5.1,0.2-8.8,0.3l-7,0.1l-2.4,0.2L217,9.8l-2.5,0.1l-4.5,0.2c-1.5,0.1-3,0.1-4.7,0.2
		l-2.9,0.2c-1.4,0.1-1.2,0.1-1.5,0.1l-0.3,0l-1-0.1c-4.6-0.3-7.9-0.3-10.5-0.2l-3.7,0.1l-0.9,0l-0.4,0l-0.1,0
		c-0.1,0-0.3,0.1-0.4,0.1c-0.1,0-0.2,0-0.3,0l-0.1,0l-0.1,0l-0.2,0c-0.8-0.2-1.7-0.4-2.7-0.6c-2-0.5-4.2-1.1-7-1.9
		c-1.5-0.5-2.9,0-4.5,0.9c-0.8,0.4-1.6,0.9-2.5,1.4c-0.3,0.3-1.2,0.5-1.9,0.7c-0.7,0.2-1.5,0.4-2.2,0.6c-1.1,0.4-2.3,0.8-3.5,1.1
		c-0.8,0.3-1.6,0.6-2.6,0.8c-1.8,0.4-4,0.4-6.5-0.1c-2.9-0.6-5.7-1.4-8.3-2.3l-2-0.6l-2-0.6l-3.9-1.2c-2.6-0.8-5.1-1.6-7.7-2.3
		l-1-0.3L124.6,6l-0.4-0.1l-0.8-0.1l-3.3-0.5c-2.3-0.3-4.6-0.6-6.9-0.9c-2.6,0.8-5.3,1.6-8.1,2.6l-3.6,1.3c-0.8,0.3-1.6,0.6-2.4,0.9
		c-2.8,1.2-5.1,2-7,2.8l-0.7,0.3l-0.1,0.1l0,0l-0.1,0l-0.2,0c-0.2,0-0.3,0-0.4,0.1l-0.7-0.1l-0.2,0c0,0-0.2,0-0.4,0l-0.5,0l-2,0.1
		c-2.7,0.2-6,0.5-10.7,1c-3,0.4-5.4,0.9-7.4,1.2l-2.9,0.5l-2.7,0.5c-5.4,1-9.9,1.9-16.3,3c-3.1,3-6.9,6.5-11.9,11.1l-8.4,7.7l-6.7,6
		l-3,13.6l-1.4,6.7L14,70.3l-0.7,3.6l-0.1,3.1l0,2.2l0,2.8c0,1.7,0.1,3.2,0.1,4.5l0.1,2l0,1l0,0.5l0,0.1l0,0l0,0
		c0.1,0.3,0.2,0.5,0.3,0.9c0,0.2,0,0.5-0.1,0.8l0,0.1l0,0l0,0.1l-0.2,0.6L13,94l-0.9,2.7l-5.7,16.6l1.4,22.6l0.3,5l1,5l0.5,2.8
		l0.8,4.7l0.4,2.2c0,0.3,0,0.2,0,0.3l0,0.1l0,0.2c0,0.3,0,0.6,0.1,1c-0.1,0.3-0.2,0.6-0.3,1L4.1,179l2.7,10.1l2.8,10.4
		c0.1,0.5,0.3,0.9,0.4,1.3c0,0.3-0.1,0.6-0.1,0.9l0,0.4l0,0c0,0,0,0,0,0.1l-0.1,0.5L9.6,204l-1,4.9L8,212l-1.2,5.6l-0.1,2l-0.3,4.7
		L6,227.3c-0.2,1.9-0.4,3.4-0.5,4.9l-0.3,2.1l-0.4,3.5L4,245.5c0.7,2.3,1.5,4.9,2.4,7.8l1.2,3.9l1,3l0.3,0.9l0.1,0.2
		c0,0.1,0,0,0,0.1l0,0.1c0,0.1,0,0.2,0,0.3c0,0.2-0.1,0.3-0.2,0.5c-0.2,0.3-0.5,0.5-0.7,0.7c-0.8,0.3-1.4,0.4-1.3,0.6
		c0,0.1,0.1,0.1,0.2,0.3l0,0.1l0,0.3L7,264.8c0,0.4-0.1,0.9-0.1,1.3c0,0.9,0,1.9,0.1,3l0,0.4l0,0.2l0,0.1l0,0.2l-0.1,1.5
		c-0.1,1-0.1,2.1-0.2,3.1c-0.1,2.3-0.2,4.3-0.3,6.1c1.1,3.8,2,6.8,2.5,9.3l0.2,0.9l0,0.2l0,0.1l0.1,0.3c0.1,0.3,0.2,0.7,0.3,1
		c0.2,0.6,0.3,1.2,0.3,1.8c0.2,2.2-0.2,3.7-0.9,5.2c-1.4,3-3.7,5.7-3.2,12.9c0.3,3.8,0.6,6.6,0.9,9l0.5,3.3l0.6,5.2l1.6,5l1.1,3.2
		c0.4,1.1,0.8,2.4,1.2,3.8l0.7,2.3l0.7,2.4c0.1,0.5,0.2,0.9,0.2,1.3c-0.2,0.4-0.3,0.8-0.5,1l-0.1,0.2c0,0-0.1,0.3-0.1,0.4l-0.1,0.5
		l-0.6,2.1c-0.4,1.4-0.8,2.9-1.2,4.7l-0.2,0.7l-0.1,0.4l-0.1,0.5l-0.5,2.8l-1.2,6.4l0.8,4.6l1,5.7l0.6,2.9l0.5,2.4l0.2,1.1l0.2,1
		c0.3,0.4,0.5,0.8,0.8,1.3c0,0.3,0,0.5,0,0.9l0,0.3l0,0.1l0,0.1l0,0l-0.1,0.2l-1.1,3.5l-3,9.2l-2.4,7.7l5.9,21.3l0.1,0.4
		c-0.2,0.5-0.3,1-0.5,1.3l-0.1,0.3l-0.4,1.2l-0.7,2.2l-0.2,0.5l-0.2,0.7l-0.6,1.9l-1.1,4l-2.7,9.4l3.6,11.8l0.7,2.2l0.6,1.9
		c0.3,0.7,0.5,1.4,0.8,2.1l0.4,1l0.2,0.5l0.1,0.2l0.1,0.2c0.1,0.1,0.2,0.2,0.4,0.3c0.5,0.4,1.2,0.8,2,1.2c0.6,0.6,1.1,1.3,1.5,2.3
		l0.1,0.2l0,0.1l0,0l0,0.1l-0.1,1.1c-0.1,0.8-0.1,1.6-0.2,2.4c-0.2,1.7-0.5,3.5-1,5.5l-1.2,5.3l-0.2,2.9l-0.1,2.1L13,498
		c-0.1,1.8-0.1,3.4-0.3,4.9c-0.1,1.5-0.3,3-0.5,4.5c-0.3,1.7-0.6,2.7-1.2,6.5l-0.1,2l-0.1,1.1c0,0.2,0,0.2,0,0.4l0,0.3l-0.4,2.9
		c-0.7,4.5-1.2,7.4-1.5,9.7L8.6,532l-0.1,0.8l0,0.4c0,0.1,0,0.3,0,0.3c-0.1,0.2-0.2,0.4-0.2,0.6c-0.1,0.4-0.1-0.1-0.5,2.4l-1,7.4
		L5,556.4l1.4,8.4l0.7,4.4l0.8,5l1,6v0l0.8,7.7l0.7,5.9c0.2,1.8,0.4,3.6,0.6,5.8l0.2,8.3c0.1,3.5,0.1,6.1,0.1,8.3c0,1.1,0,2-0.1,3
		L11,622c-0.4,3.6-0.7,7.2-1,14.5c0,0.2,0,0.3-0.1,0.5l0,0.1l0,0l0,0l-0.1,0.2l0.1,0c0.1,0.1,0.5,0.2,0.6,0.4
		c0.1,0.6,1.4,1.2,1.6,1.8c0.2,0.6-1.2,1.4-1,2c0.2,0.6,1.4,1,1.7,1.6c0.3,0.6-2.2,10.5-1.7,11.1l-0.3,1.6l-0.1,0.4l-0.1,0.7
		l-0.2,1.4l-0.2,2.2l-0.2,1.3l-0.3,2.6L9,669.6l-0.6,5.2l-0.2,1.3l-0.1,0.7L8,677.9l-0.4,4.6l0.6,5.3l0.1,0.5l0,0.4l0.1,0.7l0.1,1.5
		l0.5,6c0.7,4.9,3.3,5.2,6.7,5c1.7-0.1,3.7-0.4,5.7-0.4c0.5,0,1,0.1,1.6,0.1c0.5,0.1,1.1,0.3,1.6,0.5c1.1,0.4,2.2,1,3.3,1.7
		c0.8,0.5,1.6,1,2.4,1.6l0.6,0.5l0.6,0.4c0.4,0.3,0.8,0.6,1.2,1c1.5,1.4,3.1,3.2,4.8,5.7c2.4,3.6,4.5,5.8,6.2,6.4
		c2.2,0.7,3.7-0.3,4.8-1.8c0.3-0.4,0.6-0.8,0.9-1.3c0.1-0.2,0.3-0.5,0.4-0.7c0.1-0.3,0.2-0.7,0.3-1c0.3-1.4,0.6-3.1,0.7-4.9
		c0.1-1.8,0.2-3.8,0.1-5.8c0-1-0.1-2-0.2-3.1l-0.1-0.8l0-0.4l0-0.8l0.1-0.7l0-0.3c0-0.1,0-0.2,0-0.4c0-0.9-0.1-1.7-0.1-2.5
		c-0.1-1.7-0.3-3.3-0.5-4.9c-0.5-3.2-0.9-5.5-1.2-7.2l-0.1-0.6l-0.1-0.3l-0.1-0.5l-0.2-0.7c0-0.4-0.1-0.7,0-1.1c0-0.1,0-0.2,0-0.3
		c0-0.1,0-0.2,0.1-0.4c0.1-0.4,0.2-1,0.3-1.5c0.5-2.4,1.5-6.1,3.3-13.3c0-0.2,0.4-0.6,0.9-1l0.2-0.1l0.2-0.1l0.4-0.1
		c0.3-0.1,0.5-0.1,0.8-0.2l1.2-0.2l0.1,0c0-0.1,0-0.2,0-0.3c0-0.3,0-0.6,0-1.1c0-0.8-0.1-1.9-0.1-3c-0.1-2.2-0.2-4.4,0-4.6
		c0.5-0.5,1.1-5,1.5-5.5c0.4-0.5,1.2-0.9,1.5-1.5c0.3-0.5,0.1-1.3,0.4-1.9c0.3-0.8,0-1.9,0-2.8c0-0.2,0-0.4,0-0.6
		c0.1-0.5,0.3-1.1,0.6-1.6l0.2-0.4l0.1-0.2l0.1-0.1c0.1-0.2,0.1-0.3,0.2-0.5c0.3-7.8,0.5-11.8,0.7-15.7l0.2-3c0.1-1,0-2.2,0-3.5
		c0-2.5-0.1-5.6-0.2-9.6l-0.3-9.7c-0.2-2.5-0.4-4.4-0.5-6.4l-1.5-16.5l0-0.3l-0.5-2.9l-0.3-1.8c-0.2-1.1-0.5-2.2-0.7-3.1
		c-0.4-1.9-0.8-3.5-1.2-5l-0.6-2.1l-0.3-1l-0.1-0.5l-0.1-0.3l0-0.1l0,0c-0.2-0.3-0.4-0.7-0.6-1.1c0-0.3,0-0.6,0-1l0-0.2l0-0.1l0,0
		l0-0.1l0.1-1.2l0.3-2.6c0.4-2.8,0.7-5.1,1.1-7.1l1.3-7.3l0-3.2c0-1,0-2.3,0-2.7c0-1.2,0.1-2.4,0.1-3.7c0-2.7,0-5.9-0.3-10.7
		c-0.1-1.4,0-1.2-0.1-1.5c0-0.1,0-0.3,0-0.4l0.1-1.6l0.1-2.9c0-1.8,0-3.3,0-4.8l0-4.5l0-2.5c0-0.6,0-0.5,0-0.7l0-0.4l0-0.4l0-0.2
		l0-0.1l0.1-0.4l0.7-3.3l2.5-10.4l2.6-10.5L59.5,461l-2.6-8.7c-0.2-0.6-0.3-1.1-0.4-1.6c0.2-0.5,0.3-0.9,0.5-1.2l0.2-0.5l0.1-0.2
		l0-0.1l0.1-0.3l0.2-0.5l0.7-2.2l0.4-1.2l0.7-2.3c0.9-3.2,2-7,3.2-11.7l-0.8-3.1c-0.8-3-1.5-5.4-2.3-7.5c-0.4-1-0.8-1.9-1.1-2.8
		l-0.3-0.6l-0.2-0.3c-0.1-0.2-0.3-0.4-0.4-0.6c-0.6-0.7-1.2-1.3-1.8-1.7c-0.3-0.2-0.6-0.4-0.9-0.6c-0.2-0.1-0.3-0.2-0.5-0.2l-0.4,0
		c-2.3-0.1-4.7-0.4-6.2-3.1c0-0.5,0.1-1.1,0.4-1.8c0.3-0.9,0.6-1.6,1-2.1c0.2-0.2,0.3-0.4,0.5-0.6c0.2-0.3,0.5-0.5,0.7-0.7
		c0.9-0.6,1.7-0.3,2.5,0.1c0.8,0.4,1.6,0.7,2.5,0.1c0.5-0.3,0.9-0.9,1.4-1.8l0.2-0.4l0.1-0.2l0.1-0.3c0.2-0.5,0.4-1,0.6-1.6
		c0.4-1.1,0.9-2.5,1.4-4l2.2-6.5l-1.3-8.4l-0.7-4.4l-0.4-2.7l-0.7-5.4l0-0.2l0-0.1l0-0.1l0-0.2l0-0.4l0-0.8l0.2-0.7l0.1-0.4l0.1-0.2
		l0-0.1l0-0.1l0-0.2l1.1-5.3l0.5-2.6l0.3-1.6l0.4-2.2l1.6-8.7c-1-3.9-1.9-7.6-2.9-11l-1.3-5l-0.9-3.9l-0.7-3.1l0-0.7l0.1-0.7l0-1.5
		l-0.1-1.7c-0.1-2.3-0.2-5.1-0.5-8.9c-0.5-6.9-0.9-10.6-1.3-14l-0.6-5.3l-0.1-0.8l0-0.4c0-0.1,0-0.1,0-0.1l-0.1-0.4
		c0-0.3-0.1-0.6-0.1-1c0.1-0.2,0.2-0.5,0.3-0.8l3.7-10.5l4.5-12.7l-2.6-8.2l-3.4-10.4c-0.5-1.5-1-2.8-1.5-3.8l-0.1-0.2l0,0l-0.1-0.1
		l-0.2-0.1c-0.1-0.1-0.3-0.2-0.4-0.2c-0.6-0.3-1.5-0.4-2.3-0.6c-1-0.2-2.1-0.5-2.9-1.1c-0.2-0.2-0.4-0.4-0.6-0.6
		c-0.1-0.1-0.2-0.2-0.2-0.4l0-0.1l0-0.2l-0.1-0.5c-0.2-1.4-0.2-3.1-0.1-5.2c0.1-1.6,0.3-3.2,0.5-4.6l0.2-1.1
		c0.1-0.3,0.1-0.8,0.2-0.9c0.1-0.3,0.3-0.6,0.4-0.9c0.1-0.2,0.3-0.4,0.4-0.5l0.2-0.3l0.1-0.1l0.2-0.3c0.4-0.8,0.9-1.6,1.3-2.4
		c0.9-1.6,1.8-3.2,2.8-4.7l1.4-2.3c0.2-0.3,0.5-1.1,0.8-1.8l0.9-2.1c1.2-2.9,2.3-6,3.4-9.3c-0.7-4-1.6-8.4-2.9-13.1l-1.2-4.5
		l-0.3-1.2l-0.4-1.3l0.4-1.5l0.1-0.4l0.6-1.9l2-6.8l2.8-9.5l-2.1-9.8l-0.9-3.9l-0.5-2.2l-1.1-4.6l-0.6-2.8l-0.3-1.4l-0.1-0.4
		c0-0.3,0-0.2-0.1-1.7c-0.3-4.6-0.4-7.8-0.4-10.5l0-1l0-0.2l0.1-0.4l0.2-0.8c0.2-0.3,0.4-0.7,0.6-1.1l0.1-0.2l0,0l0.1-0.2l0.1-0.4
		l0.6-1.6l1.3-3.8l4.3-12.4l0.8-20.3l0.1-0.4l0.6-3l0.5-2.9l0.2-1.3l0.1-0.6l0-0.1v0l0-0.1c0-0.2,0-0.4-0.1-0.5
		c-0.1-0.7-0.3-1.3-0.4-2.1c0.2-0.3,0.4-0.7,0.7-1.1c0.2-0.2,0.3-0.4,0.5-0.6l0.3-0.3l0.9-0.9c0.8-0.7,1.4-1.1,1.9-1.4
		c1,0.1,1.7,0.3,2.5,0.5c0,0,0,0,0.1,0l0.3,0l0.6,0l1.2-0.1c0.8-0.1,1.6-0.1,2.6-0.3c1.9-0.2,4-0.5,6.7-0.9l20.1-2.2l15.1-6.2
		l2.7-1.1l0.3-0.1l0.1,0l0.1-0.1l0.2-0.1c0.3-0.2,0.6-0.4,0.8-0.6c0.3-0.1,0.7-0.2,1-0.3c0.2-0.1,0.3-0.1,0.5-0.2l2-0.1
		c2.8-0.2,6.2-0.3,11.4-0.2c5.5,0.3,9,0.8,11.9,1.2l4.2,0.7l2.2,0.3l0.3,0l0.1,0l0,0l0.1,0l0.2,0.1l0.4,0.2l0.1,0l0.2,0.1l0.5,0.1
		l1,0.2c1.4,0.3,3,0.7,4.8,1c2.9,0.6,5.2,1,7.2,1.4l6.8,1.2l3.2,0.1l1.2,0l0.9,0l3.7,0.1c2.7,0.1,5.9,0.2,10.5,0.5l5,0.3l5.2-0.5
		l2.9-0.2l4.7-0.3l4.5-0.2l2.5-0.2l1.4-0.1l0.4,0h0.1l0.2,0l0.1,0l0.3,0l1.5,0l3.3-0.1c2.8-0.1,5.4-0.5,7.8-1.2
		c1.2-0.3,2.4-0.8,3.6-1.2c0.6-0.2,1.1-0.5,1.7-0.7c0.4-0.1,0.3-0.2,0.5-0.4l0.3-0.4l0.5-0.6l1.5-0.6l2.9-1.1
		c1.9-0.8,3.9-1.5,5.9-2.1c2-0.6,4-1.2,6.2-1.5c1.1-0.2,2.2-0.3,3.3-0.3c1.1-0.1,2.3-0.1,3.5-0.1c7.6,0.3,9.1,2.8,10.6,5.3
		c0.8,1.3,1.5,2.5,3.1,3.5c1.5,1,3.8,1.7,7.6,1.9c4.4,0.2,7.6,0.5,10.1,0.8l2,0.2l3,0.3l5.9,0.6l4.3-1.1l4.9-1.3
		c2-0.5,4.4-1.2,7.4-2l2.5-0.8l1.1-0.4l0.2-0.1l0.1,0l0.1,0c0.3-0.1,0.6-0.3,0.8-0.4c0.4-0.1,0.7-0.2,1.1-0.3l4.5-0.3
		c3.1-0.2,6.8-0.3,12.7-0.3c5.6-0.2,9.1-0.1,12.1-0.1l2.2,0.1l1,0l0.3,0.1c0.4,0.1,0.7,0.2,1.2,0.2c0.3,0.2,0.6,0.3,0.9,0.5
		c0.1,0,0.1,0.1,0.3,0.1l1.3,0.4l2.8,0.9l11,3.5l8.5,2.7l20.7-8.1l1-0.4c0.6,0.1,1.1,0.2,1.5,0.3l0.6,0.1l0.3,0l1,0.2l2.2,0.5
		l1.2,0.3l1.7,0.4l10.2,2.6l7.6-1.3l7.3-1.2l4.3-0.7l3.5-0.5l0.2,0h0.1l0.1,0l0.2,0l0.4,0l0.6,0.1l0.1,0l0,0l0.2,0l0.7,0l1.5,0.1
		c2.1,0.1,4.7,0.2,7.9,0.3c7.2,0.2,11,0.4,14.6,0.6l5.7,0.3l3.6,0.2l6.3,0.2l3.2-0.4l3.9-0.5l3-0.5c1.8-0.3,3.3-0.6,4.7-0.8l0.5-0.1
		c0.1,0,0.1,0,0.1-0.1l0.2-0.1l0.5-0.2c0.3-0.1,0.6-0.3,1-0.4c0.3,0,0.7,0.1,1.2,0.2l0.4,0.1l0.2,0l0.1,0l0.2,0.1L518,55l2.6,0.9
		l3.3,1.2c3,1.1,6.1,2.3,9.1,3.5l9.2-0.3l2.3-0.1l1.3,0l2.6,0l5.3,0l2.6,0h0.7l1.1,0l2.4-0.1c1-0.1,1.9-0.3,2.9-0.5l0.4-0.1l0.2,0
		l0.4-0.1l0.8-0.1l3.2-0.5c2.2-0.3,4.3-0.7,6.4-1.1c1.4-0.3,2.6-0.6,3.5-1.1c0.2-0.1,0.4-0.2,0.6-0.3l0.3-0.2l0-0.1
		c0-0.2,0.1-0.4,0.1-0.6c0.1-0.9,0.1-2.1,0-3.4c-0.1-1.3-0.3-2.7-0.5-4c-0.1-1.3-0.2-2.6,0.2-3.6c0.2-0.5,0.6-0.9,1.3-1.2
		c0.2-0.1,0.3-0.1,0.5-0.2l0.3-0.1l0.1,0l0.2,0c0.7-0.1,1.4-0.1,2.2,0c0,0,0.6,2.6,2.6,5.5c1,1.4,2.5,2.9,4.4,4.2
		c1,0.6,2,1.2,3.2,1.7c0.3,0.1,0.6,0.2,0.9,0.4l0.5,0.2l0.2,0.1l0.1,0l0.2,0c1.2,0.2,2.4,0.4,3.8,0.6c1.8,0,4.4-0.2,5.2-0.3l8.9-0.9
		l4.3-0.4l2-0.2l0.5,0l16.9,0.9l2.3,0.6l5.5,1.3l4.4,1l11.7,2.6l9.4-2.2l8.8-2l2.3-0.5l1.1-0.2l0.3-0.1l0.1,0
		c0.3-0.1,0.6-0.1,0.9-0.1c0.2,0,0.4,0.1,0.6,0.1l0.3,0.1l0.1,0l0.5,0.1l4.3,0.5c1.5,0.2,3,0.4,4.9,0.5l3.1,0.3l1,0.1l0.3,0.1
		c0.1,0,0.3,0.1,0.4,0.1l0.8,0.2l0.9,0.1c1.1,0.2,2.2,0.2,3.1,0.2c1.8,0,3.3-0.4,4.7-0.9c1.4-0.5,2.6-1.1,3.9-1.7
		c0.3-0.1,0.7-0.3,1-0.4l0.5-0.2c0.2-0.1,0.2-0.2,0.3-0.2c0.4-0.3,0.8-0.6,1.3-0.8c0.3-0.1,0.6-0.1,0.9-0.2c0.2,0,0.3,0,0.5,0l0.1,0
		l0.1,0l0.2,0.1l0.5,0.1c1.3,0.4,2.7,0.9,4.3,1.6c2.1,1,3.8,2,5.3,3.1c1.4,1.1,3.2,2.5,3.2,3.1c0.3,0.9,0.7,2,0.9,3
		c0.2,1,0.3,1.9,0.4,2.8c0.2,1.8,0.3,3.2,1.3,4.2c0,0.1-0.1,0.3-0.1,0.4c0.1,0.6,0.2,1,0.5,1.4l0,0.1l0,0l0,0l0,0.2l0.2,1.7l0.4,3.3
		l0.9,6.6c1.3,2.2,2.8,4.5,4.4,7.3l3,5.1c0.5,0.9,0.8,1.6,1,2.1c-0.4,0.9-0.8,1.5-1.1,2.2c-0.1,0.2-0.2,0.3-0.3,0.5l-0.1,0.1
		l-0.2,0.6l-0.4,1.4l-0.4,1.5l-0.6,2.2l-1.6,6.6l-0.1,0.6l1.5,15.8l0.6,5.9l-0.9,5.8l-2.4,14.6l0.9,20.5l0.1,1.5l0,0.2l0,0.2
		l-0.3,5.3l-0.3,4.7l-0.3,4.4l-0.2,3l-0.2,5.2l1.6,8.9c0.7,3.7,1.3,6.4,1.8,8.7c0.3,1.1,0.5,2.2,0.8,3.1l0.1,0.4
		c0,0.1,0.1,0.3,0.1,0.3l0.1,0.2l0.2,0.3l0.2,0.3l0.1,0.2l0,0.1l0,0.2l0,0.4c0.1,1,0.3,2.1,0.4,3.3c0.2,2.4,0.4,5.3,0.6,9.2
		c0.2,6.9,0.3,10.7,0.1,14.2c0,1.8-0.1,3.4-0.1,5.4c0,1,0,2,0,3.2l0,0.9l0,0.2l0,0.5l-0.1,0.4l-0.1,0.9c-2.1,14.8-2.2,14.8-4.6,29.5
		c-0.2,1.4-0.4,2.6-0.5,3.5l-0.1,0.7l-0.1,1c-0.1,0.7-0.1,1.3-0.1,1.9c-0.1,2.2,0.1,3.4,0.3,4.1c0.7,1.2,1.5,1.3,2.2,3.1
		c0.2,0.4,0.4,1,0.5,1.6c0.1,0.3,0.2,0.7,0.3,1.1l0.1,0.7c0,0.2,0.1,0.3,0.1,0.5c0.3,1.2,0.5,2.9,0.8,5.2c0.2,2,0.3,3.9,0.4,5.8
		c0,1,0,1.9,0.1,2.8v1.4v0.2l0,0.1l0,0.1l0,0.2l-0.1,0.3l0,0.1l0,0.2l0,0.5l-0.2,1.9l-0.5,3.8l-0.9,7.6c-0.6,5.1-1,10.3-0.9,15.9
		c0,2.4,0.1,4.4,0.2,6.1l0.3,5.5l0.2,1.9l0.2,1.1l0.3,2l0.6,4c0.2,1.4,0.4,3,0.7,4.8l0.4,3.6l0,0.4c-0.1,0.3-0.2,0.7-0.3,0.9
		l-0.1,0.4l-0.4,1.3c-0.5,1.8-1,3.4-1.5,4.8l-1.4,4.3l-0.2,0.6l-0.3,1L739,402l-1.4,4.8l0.2,5.7l0.2,5c0.1,3.3,0.2,5.9,0.3,8.1
		l0.3,9.2l3.2,9.7c0.8,2.4,1.8,5.3,3.1,9.3c0.2,0.5,0.3,0.8,0.5,1.2c0,0.5,0.1,0.9,0.2,1.2l0.2,4.4c0.1,1.5,0.1,2.9,0.2,4.7l0,2.8
		v1.6v0.5l0,0.2l-0.1,0.7l-0.2,1.9l-1.2,10.3l-0.9,8l-0.4,13.8l-0.2,4.5l-0.1,1.9l0,0.4c0,0.1,0,0.1,0,0.1l0,0.2l-1.4,8.2
		c-0.2,1.5-0.5,3-0.8,4.9l-0.2,1.5l-0.3,2.2l-0.8,6.5l0.3,1.9l1.4,7.9l1,5.2l0.5,2.5l0.2,1.2c0,0.2,0.1,0.2,0.1,0.3l0.3,1.1l0,1
		l0,0.2l0,0.1l0,0.1l0,0.2l-0.2,1.5l-0.4,2.8c4.9,2.2,7.2,4.2,7.8,6.3c0.3,1,0.2,2-0.2,3c-0.1,0.3-0.2,0.5-0.4,0.8
		c-0.2,0.4-0.3,0.8-0.5,1.2c-0.4,0.8-0.9,1.6-1.4,2.5c-0.4,0.9-0.8,1.9-1.2,2.9l-0.3,0.8c-0.1,0.3-0.2,0.5-0.3,0.6l-0.7,1
		c-0.9,1.4-1.9,2.8-2.8,4.4c-1.8,3.1-3.2,6.4-3.3,10.2c0,1.5-0.1,2.8-0.1,4l-0.2,3.3l-0.2,5.2l-0.2,4.5l-0.1,2.5l-0.2,4.9l1.3,9.6
		l1.1,8l0.3,2.7l0,0.7l-0.1,0.4l0,0.2c0,0.1,0,0,0,0.4l-0.2,3.5l-0.3,4.3l-0.3,6.1c-0.1,1.1,0.6,2.2,0.6,3.2c0,1.1-0.4,2.2-0.3,3.3
		c0,0.3,0,0.7-0.1,1.1c0.1,0.8,0.1,1.6,0.5,2.2c1.1,2,2.4,3.7,3.7,5.3l0.3,0.3c0.1,0.1,0.2,0.2,0.2,0.2l0.4,0.3l0.9,0.6l1.9,1.1
		c2.6,1.4,5.1,2.9,6.9,4.9c0.4,0.5,0.8,1,1.1,1.5l0.1,0.2l0.1,0.1l0.2,0.2c0.1,0.2,0.2,0.3,0.3,0.5c0.4,0.7,0.7,1.4,0.9,2.1
		c0,0.6-0.1,1.1-0.2,1.7l-0.1,0.8l-0.1,0.4l0,0.2l0,0.3c-0.2,1.8-0.3,3.5-0.1,5.3C758.5,704.1,773.1,705.7,775.9,696.2z"></path>
	<path class="st0" d="M103.9,786.4c2.9,0.5,5.3,0.8,7.3,0.9c2.2,0.1,3.2,0.1,6.4,0.1l1.6-0.2l0.8-0.1l0.4,0l0.2,0l1.7-0.3
		c1.2-0.2,2.4-0.4,3.7-0.6c2.7-0.3,5.9-0.5,10.5-0.3c0.3,0,0.6,0,0.8,0c0.1,0,0.2-0.1,0.2-0.2c0.2-0.2,0.3-0.4,0.5-0.8l0.6-1
		c0.2-0.4,0.3-0.8,1-1.2c1.1-0.8,2.3-1.6,3.6-2.3c2.7-1.4,6-2.3,10.6-1.1c4.7,1.2,8.8,2.8,12.8,4.5l5.9,2.5l0.4,0.1
		c0.1,0.1,0.4,0.1,0.5,0.2l1.2,0.4l2.4,0.7c1.6,0.5,3.3,0.9,5,1.4c1.9-0.2,3.9-0.4,5.9-0.6l3.1-0.4l0.4-0.1l0.2,0l0.5,0l0.9-0.1
		c1.3-0.1,2.6-0.3,3.9-0.5c0.7-0.1,1.3-0.2,2-0.4l1-0.2l0.8-0.2c0.7-0.2,1.3-0.3,1.8-0.4c0.6,0.1,1.1,0.3,1.6,0.4l0.3,0.1l1.1,0.2
		l2.2,0.5c1.4,0.3,2.9,0.7,4.7,1l2.9,0.6l5.2,0.9l4.4,0.1c4.8,0.1,8.1,0.1,10.8,0l3.8-0.1l6.1-0.1l7.3-1.6c1.9-0.4,4.1-0.9,6.8-1.4
		l5.1-1l1-0.2l0.3,0l0.6-0.1l0.8,0.1l0.2,0l0.5,0l1.1,0l4.4,0.2c3.1,0.1,6.7,0.2,12.5,0.2c5.8-0.3,9.4-0.7,12.5-1.2l4.4-0.6l1.1-0.2
		c0.1,0,0.2,0,0.2,0l0.1,0l0.2-0.1c0.2-0.1,0.5-0.1,0.7-0.2c0.2,0,0.4,0,0.6,0l0.3,0l0.1,0l0.3,0l0.6,0.1c1.5,0.2,3.2,0.4,5.2,0.7
		l15.2,2.3l20.6-3.7l0.9-0.2l4.7,0.6l5.7,0.8c3.6,0.5,7.4,1.2,14.8,1.4l8.9,0.4l8.6,0.4l8.8-1.6l9.2-1.7l2-0.4l0.7-0.2h0.9
		c0.1,0,0.1,0,0.3,0l0.7,0l1.3,0l4.9,0.1c1.6,0,3.4,0.1,5.5,0.2c2.1,0.1,4.6,0.2,7.8,0.5c4.4,0.4,7.5,0.7,10.1,1.1
		c1.3,0.2,2.4,0.4,3.5,0.5l0.8,0.1l1.4,0.2l2.9,0.4l4.3-0.2l2.9-0.1c2.1-0.1,4.5-0.2,7.6-0.5c0.8-0.1,1.6-0.1,2.3-0.1l1.1,0l0.5,0
		c0.1,0,0.1,0,0.2,0c0.4,0.1,0.7,0.2,0.9,0.4c0.2,0.2,0.4,0.4,0.6,0.6l0.2,0.3c0,0,0.1,0.1,0.2,0.1l0.3,0.1l0.6,0.2
		c1.5,0.6,2.8,1.1,4.3,1.5c1.5,0.4,3.1,0.5,5,0.4c0.5,0,1-0.1,1.5-0.1l0.8-0.1l0.4-0.1l0.2,0l0.1,0l0.2,0c2,0,4.1-0.2,6.3-0.4
		l1.6-0.5l4-1.4l0.5-0.2c0.2,0,0.2-0.1,0.3-0.1l0.5-0.3l1-0.5c1.3-0.6,2.5-1.1,3.6-1.5c2.1-0.8,3.8-1.1,5.2-1.1c0.7,0,1.3,0,1.9,0.2
		c0.3,0.1,0.6,0.1,0.9,0.2c0.1,0,0.3,0.1,0.4,0.1l0.2,0.2c0.4,0.5,0.8,1.1,1.1,1.7l0.5,1.1l0.3,0.5l0.1,0.2l0.2,0.1l0.3,0.1
		c1.5,0.8,3.4,1.4,6,1.9l3.4,0.6l4.9,0.8c3,0.5,5.6,0.8,7.9,1.1L557,784c0.3-0.1,0.6-0.2,0.8-0.2c0.8,0.2,1.4,0.5,2,0.8l0.4,0.2
		l0.2,0.1l0.1,0.1l0,0l0.1,0l2.2,0.8c1.4,0.5,2.8,1,4.3,1.6l0.6,0.2l1,0.3l2.2,0.7l5.1,1.4l4.8-0.3l4.8-0.3c3.7-0.3,6.5-0.5,8.9-0.8
		c1.2-0.1,2.2-0.3,3.2-0.4l1.4-0.2c0.1,0,0.3-0.1,0.4-0.1c0.1,0,0.2-0.1,0.4-0.1l1.4-0.1c1-0.1,2-0.1,3.2-0.1c2.3-0.1,5.1-0.1,8.8,0
		l4.5,0.1l1,0l0.9,0.1l1.7,0.1c2.1,0.1,3.9,0.2,5.5,0.3l5.1,0.3l1.6,0.1l2.8,0.2l6.6,0.5l5.8-1.7l4.6-1.3l2.7-0.7l2.4-0.6l1.1-0.3
		l0.5-0.1c0.1,0,0.1,0,0.1,0l0.1,0c0.8-0.1,1.5-0.2,2.3-0.3c0.4,0.2,0.9,0.3,1.5,0.5l0.4,0.1l0.2,0.1l0.5,0.1l3.7,0.8l5.6,1.2
		l6.8,1.4l7.7-0.9l4.3-0.6c1.5-0.2,3.1-0.4,5-0.6c2.1-0.2,3.4-0.4,8.8-0.8l0.1,0l6.6-1.8l3.8-1l6-1.5c3.7-0.9,7.4-1.8,14.7-3.8
		l12.6-3.5l26.8-21.2l0.1-1.7c0.7-8.2,1-15,1-20.5c0-2.6-0.3-2.3-0.6-3c-0.3-0.5-0.6-1.1-1-1.6c-0.5-1.1-1.2-2.2-1.9-3.1
		c-0.2-0.2-0.4-0.5-0.6-0.7c-0.2-0.2-0.4-0.4-0.6-0.7c-0.4-0.5-0.7-0.9-1.1-1.3c-1.6-1.4-3.3-1.4-3.3-1.4s6.7-18.6-11-18.9
		c-4.3-0.1-8.3,1-11.8,2.8c-0.9,0.4-1.8,0.9-2.6,1.4c-0.4,0.3-0.8,0.5-1.2,0.8c-0.2,0.2-0.4,0.2-0.6,0.5l-0.8,0.9
		c-2.2,2.3-4.3,4.9-6.4,7.6c-0.9,3.2-1.7,6.6-2.3,10l-0.1,0.6c0,0.2-0.1,0.3-0.1,0.4l-0.2,0.7l-0.1,0.3l-0.1,0.1l-0.1,0.1
		c-0.1,0.1-0.2,0.3-0.3,0.4c-0.4,0.5-0.3,0.9-0.1,1.3l0,0.1c-0.7,0.5-1.2,0.7-1.7,0.7l-0.2,0l-0.1,0h0l-0.2,0.1
		c-0.1,0.1-0.3,0.2-0.4,0.3l-0.1,0l-0.2,0c-0.2,0-0.4,0-0.6,0.1c-0.2,0-0.3,0-0.5,0c-0.1,0-0.2,0-0.3,0l-2.4,0.6
		c-7.3,2-10.8,3.3-14.4,4.5c-1.8,0.6-3.6,1.3-5.8,2c-1.1,0.4-2.4,0.7-3.8,1.2l-2.2,0.6c-0.1,0-0.2,0.1-0.4,0.1h0l-4.7,0.4l-5.1,0.4
		l-4.1,0.3c-0.2,0-0.4,0-0.6-0.1c-0.2-0.1-0.3-0.1-0.5-0.2l-4.5-1l-9.2-2.1l-9.3-2.2l-13.5,3.5l-4.8,1.2l-4.1,1.1
		c-0.1,0-0.2,0.1-0.4,0.1c-0.1,0-0.3,0-0.4,0l-0.2,0l-1.5-0.1l-5.7-0.3c-1.8-0.1-3.7-0.2-6.1-0.3l-1.9-0.1l-1-0.1l-1,0l-4.8-0.1
		c-4-0.1-7-0.2-9.4-0.2l-7.7-0.3l-7.4,0.4c-2.3,0.1-5.2,0.3-8.9,0.6l-1,0.1l-0.2,0c-0.1,0-0.2,0-0.3,0.1c-0.1,0-0.2,0-0.3,0l-0.2,0
		l-0.1,0l-0.6-0.1l-4.5-0.9l-2.3-0.5l-4.5-1.1c-3.3-0.8-7.1-1.7-11.8-2.9l-4.8,1.6l-6.3,2l-5.1,1.6c-1.8,0.5-3.3,0.9-4.6,1.3
		l-0.3,0.1h0l-0.1,0l-0.1,0l-0.2,0c-0.2,0-0.3-0.1-0.5-0.1c-0.2-0.1-0.3-0.2-0.5-0.2c-0.1,0-0.2-0.1-0.3-0.1l-3.3-0.6
		c-2.2-0.4-4.1-0.7-5.7-0.9l-7.4-1.2l-4.2,0.3l-1.9,0.2l-0.5,0l-0.3,0l-0.5,0.1l-4.1,0.4c-1.4,0.1-3,0.3-4.9,0.4l-4.4,0.3l-0.1,0
		l-0.6-0.1l-3.1-0.6l-4.9-1l-4.3-0.9l-1.3-0.3l-2.2-0.4l-4.9-1l-11.6,0.9c-4.8,0.4-7.3,1.3-8.8,2.5c-0.4,0.3-0.7,0.6-1,0.9l-0.2,0.2
		l-0.1,0.2l-0.1,0.5c-0.1,0.6-0.2,1.2-0.4,1.8c-0.1,0.3-0.3,0.6-0.4,0.8c-0.1,0.1-0.2,0.2-0.3,0.3l-0.1,0.1l-0.3,0.1l-0.6,0.1
		c-1.5,0.3-3.5,0.3-6.3,0.1c-6.6-0.6-11.7-2.4-16.7-4.3c-2.5-1-4.9-2-7.4-2.9c-1.3-0.5-2.6-0.9-3.9-1.3c-0.1,0-0.1,0-0.3-0.1
		l-0.5-0.1l-1-0.2l-1.9-0.3c-1.3-0.2-2.7-0.4-4-0.6c-1.6,0.2-3.3,0.4-5,0.7l-2.5,0.4c-0.5,0.1-1,0.2-1.4,0.3l-9.2,1.8l-1.7,0.3
		l-0.8,0.2l-0.2,0l0,0l-0.3,0.1l-0.3,0l-0.1,0l-0.6,0l-1.6-0.1l-8.2-0.3c-6.7-0.2-10.4-0.6-13.8-0.7l-5.3-0.3l-3.4-0.3l-7.5-0.7
		l-5.2,1l-4.6,0.8l-2.8,0.5c-1.8,0.3-3.2,0.5-4.6,0.7l-2,0.2l-0.2,0l-0.2,0l-0.1,0l-0.1,0l-0.5-0.2c-0.2-0.1-0.3-0.2-0.5-0.3l0,0
		l-0.1,0l-0.4-0.1l-0.8-0.1l-1.6-0.3l-3.7-0.6l-12.1-1.8l-23,1.3c-5.4,0-8.7,0.2-11.6,0.5l-4.1,0.4l-1,0.1l-0.3,0
		c-0.1,0-0.1,0-0.3,0l-1,0.1l-4.4,0.2l-6.5,1.5c-1.5,0.3-3.2,0.7-5.1,1.1c-2.7,0.5-5,0.9-6.9,1.2l-1.4,0.2c-0.1,0-0.3,0-0.3,0
		l-0.1,0l-0.1,0c-0.1,0-0.2-0.1-0.4-0.1c-0.1-0.1-0.2-0.1-0.3-0.2l-0.1-0.1c-0.1,0,0-0.1-0.4-0.1c-1.2-0.1-2.4-0.3-3.8-0.4
		c-2.7-0.3-6-0.5-10.8-0.6l-0.6,0l-24.7-4.3l-11.6,3l-2.9,0.8l-2.3,0.6c-1.4,0.4-2.7,0.8-3.8,1.1l-0.4,0.1l-0.1,0l0,0l0,0l-0.1,0.1
		l-0.2,0.2l-0.3,0.4c-0.1,0.1-0.2,0.1-0.4,0.2l-0.2,0.1l-0.1,0l-0.1,0l-0.4,0c-2.3-0.1-5.1-0.4-8.8-0.8c-6.9-0.8-10.6-1.5-14.1-2.2
		c-1.7-0.4-3.4-0.7-5.4-1.1c-1-0.2-2.1-0.4-3.3-0.5l-0.9-0.1l-1.2-0.2l-4-0.5l-5.2,0.2c-4.6,0.2-7.9,0.1-10.6,0l-3.7-0.1l-1.8,0
		h-0.2l0,0l0,0l-0.1,0l-0.1,0l0,0h-0.1h-0.2l-0.6,0c-0.8,0-1.7,0-2.7,0.1c-2,0.1-4.3,0.3-7.1,0.7c-3.8,0.5-7,1.4-9.8,2.4
		c-2.7,1-5,2.3-7.1,3.7c-1,0.7-2,1.4-3,2.2l-1.5,1.2c-0.5,0.4-1,0.8-1.2,1.2c-1.1,1.6-2.5,3.3-4.4,4.8c-1.4,0.7-3.1,1.3-5.1,1.5
		l-0.7,0.1c-0.3,0-0.5,0-0.8,0.1c-0.5,0.1-1,0.2-1.4,0.3c-0.9,0.3-1.6,0.6-2.2,1.1c-1.2,1-2,2.4-2.2,4.1c-0.3,1.7-0.1,3.8,0.6,6.1
		c1,2.5,2.7,5.3,5.4,8.6c2.1,1.3,4.6,2.5,7.6,3.8l0.6,0.2c0.2,0.1,0.4,0.2,0.5,0.2l0.8,0.4c0.5,0.3,1.1,0.6,1.6,0.8
		c1.1,0.6,2.2,1.1,3.4,1.6c2.3,1,4.8,2,7.4,2.8C98.3,785.2,101,785.9,103.9,786.4z"></path>
</g>
</svg>
