<?xml version="1.0" encoding="utf-8"?>
<!-- Generator: Adobe Illustrator 24.3.0, SVG Export Plug-In . SVG Version: 6.00 Build 0)  -->
<svg version="1.1" id="レイヤー_1" xmlns="http://www.w3.org/2000/svg" xmlns:xlink="http://www.w3.org/1999/xlink" x="0px"
	 y="0px" viewBox="0 0 135.36 130.08" style="enable-background:new 0 0 135.36 130.08;" xml:space="preserve">
<style type="text/css">
	.st0{fill:#D71A1A;}
</style>
<g>
	<g>
		<path class="st0" d="M114.72,100.08c-0.6,0.32-0.94,0.91-1.44,1.31c0,0.22,0,0.42,0,0.61c-0.19,0-0.36-0.02-0.52,0.15
			c-0.69,0.7-1.41,1.37-1.88,2.25c-0.8,0.68-1.63,1.32-2.39,2.05c-1.17,1.13-2.45,2.11-3.76,3.07c-0.92,0.67-1.8,1.4-2.77,2.01
			c-0.63,0.4-1.25,0.83-1.91,1.18c-0.83,0.44-1.61,0.95-2.41,1.43c-0.72,0.43-1.55,0.68-2.32,1.05c-1.8,0.87-3.68,1.55-5.59,2.15
			c-0.5,0.16-0.91,0.36-1.26,0.72c-1.65,0.03-1.78,0.08-2.19,0.74c-0.29,0.05-0.54-0.01-0.76-0.27c-0.85,0.33-1.72,0.66-2.58,0.99
			c-0.38,0.14-0.39,0.13-0.68,0.69c-0.1,0.01-0.21,0.02-0.32,0.03c-0.12,0.01-0.24,0-0.31-0.11c0.07-0.08,0.15-0.17,0.33-0.37
			c-0.68,0.13-1.17-0.28-1.76-0.24c-0.56,0.03-1.15-0.11-1.67,0.03c-1.25,0.34-2.5,0.18-3.75,0.21c-1.24,0.03-2.48-0.05-3.72,0.03
			c-0.69,0.05-1.28-0.27-1.94-0.27c-0.65,0-1.29,0.04-1.95-0.19c-0.55-0.19-1.21-0.18-1.81-0.24c-2-0.21-3.88-0.97-5.86-1.24
			c-1.34-0.74-2.93-0.83-4.27-1.56c-0.32-0.18-0.39-0.16-0.95,0.13c-0.26-0.21-0.6-0.25-0.94-0.31c-0.02-0.21-0.04-0.4-0.06-0.53
			c-1.38-0.82-2.85-1.35-4.16-2.23c-0.72-0.49-1.59-0.79-2.35-1.26c-1.51-0.94-2.93-2.02-4.37-3.07c-2.67-1.96-4.83-4.43-7.15-6.74
			c-0.97-0.97-1.79-2.1-2.61-3.22c-0.81-1.1-1.51-2.27-2.34-3.35c-0.37-0.49-0.63-1.03-0.95-1.54c-0.74-1.15-1.42-2.37-1.92-3.64
			c-0.48-1.24-1.09-2.42-1.53-3.69c-0.42-1.21-0.96-2.42-1.3-3.65c-0.4-1.44-0.81-2.88-1.1-4.37c-0.22-1.14-0.24-2.33-0.67-3.43
			c0.18-0.91-0.29-1.75-0.26-2.66c0.07-1.97-0.34-3.92-0.26-5.9c0.03-0.67,0.34-1.27,0.28-1.94c-0.05-0.64-0.14-1.31,0.03-1.91
			c0.16-0.58,0.07-1.17,0.24-1.7c0.17-0.54,0.08-1.09,0.23-1.59c0.36-1.26,0.54-2.56,0.85-3.84c0.47-1.96,1.18-3.84,1.76-5.76
			c0.16-0.54,0.38-1.06,0.6-1.55c0.66-1.45,1.25-2.92,2.04-4.32c1.04-1.86,2.12-3.71,3.37-5.44c0.78-1.09,1.57-2.17,2.44-3.2
			c1.18-1.41,2.36-2.82,3.66-4.12c1.02-1.02,2.2-1.86,3.26-2.82c0.87-0.78,1.79-1.47,2.71-2.18c0.81-0.62,1.65-1.21,2.52-1.73
			c2.11-1.25,4.26-2.43,6.49-3.45c1.55-0.71,3.14-1.3,4.75-1.85c1.48-0.5,2.99-0.9,4.48-1.35c0.5-0.15,1.04-0.22,1.55-0.29
			c1.13-0.16,2.23-0.61,3.4-0.5c0.65-0.41,1.39-0.1,2.06-0.26c1.36-0.33,2.74-0.19,4.11-0.22c1.36-0.02,2.72,0.05,4.08-0.03
			c0.65-0.04,1.19,0.28,1.82,0.28c0.61,0,1.2-0.07,1.84,0.18c0.57,0.22,1.27,0.1,1.93,0.26c1.63,0.41,3.29,0.68,4.93,1.14
			c1.65,0.47,3.28,0.99,4.88,1.56c1.53,0.54,2.97,1.32,4.44,2.03c2.37,1.14,4.58,2.52,6.74,3.97c1.04,0.7,2.04,1.52,2.99,2.39
			c1.27,1.15,2.69,2.15,3.84,3.43c1.63,1.81,3.29,3.59,4.7,5.6c1.35,1.91,2.64,3.84,3.78,5.88c0.51,0.91,1,1.83,1.45,2.76
			c0.53,1.1,1,2.22,1.42,3.37c0.43,1.18,0.89,2.35,1.22,3.57c0.32,1.19,0.78,2.33,0.94,3.58c0.1,0.81,0.43,1.59,0.52,2.42
			c0.02,0.14,0.17,0.32,0.17,0.52c0,0.54,0.02,1.05,0.21,1.59c0.17,0.49-0.01,1.05,0.24,1.59c0.17,0.36,0.04,0.87,0.03,1.31
			c-0.01,0.32-0.04,0.63,0.32,0.79c-0.15,0.21-0.23,0.33-0.28,0.39c0.52,2.3,0.02,4.55-0.06,6.76c0.23,0.11,0.25-0.07,0.34-0.1
			c0.62,0.18,0.28,0.79,0.46,1.17c0.31-0.18,0.08-0.46,0.22-0.66c0.16-0.16,0.37-0.03,0.56-0.07c0.23,0.24,0.06,0.53,0.12,0.81
			c-0.21,0.22-0.42,0.45-0.6,0.64c-0.23-0.01-0.38-0.02-0.5-0.03c-0.24-0.21,0.04-0.51-0.2-0.68c-0.08-0.01-0.15-0.02-0.23-0.02
			c-0.27,0.17-0.23,0.99,0.1,1.78c-0.26,0.22-0.53,0.44-0.73,0.61c-0.02,0.78-0.03,1.42-0.21,2.08c-0.17,0.61-0.38,1.24-0.44,1.85
			c-0.11,1.22-0.56,2.34-0.83,3.51c-0.23,1-0.57,2.01-0.97,2.95c-0.79,1.91-1.52,3.86-2.49,5.69c-1,1.88-2.09,3.71-3.28,5.49
			c-0.54,0.81-1.25,1.51-1.63,2.44C114.6,99.62,114.76,99.9,114.72,100.08z"/>
		<path class="st0" d="M29.53,38.9c-0.01,0.17,0.02,0.35-0.17,0.51c-0.3,0.25-0.56,0.55-0.78,0.77c-0.05,0.27,0.08,0.36,0.22,0.48
			c-0.27,0.26-0.45,0.62-0.89,0.66c-0.14,0.25-0.04,0.53-0.08,0.84c-0.54,0.24-0.48,0.95-0.95,1.28c-0.06-0.4,0.12-0.83-0.09-1.2
			c-0.18,0-0.3-0.02-0.39,0.13c0,0.35-0.01,0.74,0.01,1.13c0,0.12,0.09,0.21,0.23,0.18c0.01,0.6-0.12,1.14-0.72,1.44
			c-0.06-0.24,0.13-0.52-0.14-0.71c-0.13,0.2-0.49,0.3-0.27,0.69c0.12,0.01,0.26,0.02,0.41,0.03c0,0.28,0,0.56,0,0.84
			c-0.17,0.25-0.46,0.02-0.72,0.22c0.12,0.88-0.15,1.73-0.62,2.57c-0.06-0.17-0.11-0.31-0.12-0.36c-0.18,0.16-0.4,0.35-0.7,0.63
			c0,0.32,0,0.8,0,1.27c-0.29,0.27-0.51,0.61-0.93,0.68c-0.2,0.32,0.35,0.43,0.21,0.73c-0.38,0.14-0.67,0.51-1.14,0.35
			c-0.08,0.38-0.11,0.68,0.02,0.98c0.32-0.15,0.38-0.46,0.53-0.71c0.12,0.01,0.25-0.03,0.33,0.11c-0.07,0.08-0.14,0.16-0.21,0.24
			c0.05,0.13,0.26,0.18,0.2,0.5c-0.43,0.25-0.56,0.92-1.2,1.2c0.16,0.12,0.32,0.23,0.47,0.34c0,0.4,0,0.75,0,1.11
			c-0.27,0.1-0.09,0.53-0.41,0.63c0.64,1.08-0.46,1.8-0.33,2.91c-0.1-0.11-0.02-0.02,0.05,0.06c0.06,0.32-0.22,0.4-0.35,0.58
			c-0.08-0.08-0.17-0.15-0.4-0.36c0.17,0.68,0.31,1.2,0.47,1.85c-0.16,0.57-0.33,1.3-0.46,2.04c-0.35,2.01-0.12,4.02-0.24,6.02
			c-0.04,0.57,0.24,1.04,0.28,1.58c0.03,0.49-0.25,1.04,0.22,1.46c0,0.76-0.01,1.52,0.01,2.28c0.01,0.47-0.17,0.99,0.09,1.4
			c0.27,0.43-0.05,0.92,0.17,1.25c0.28,0.41,0.22,0.88,0.36,1.29c0.19,0.57,0.05,1.25,0.05,1.93c0.81,0.46,0.83,1.35,0.96,2.08
			c0.13,0.71,0.33,1.42,0.33,2.17c0,0.73,0.29,1.48,0.92,2c0,0.48,0,0.96,0,1.47c0.65,0.34,0.12,1.54,1.18,1.57
			c0.1,0.62-0.29,1.04-0.41,1.58c0.06,0.06,0.18,0.17,0.31,0.3c0.16-0.32,0.32-0.64,0.48-0.96c0.51,0.55,0.59,1.32,0.97,1.89
			c0.41,0.61,0.46,1.35,0.96,1.94c0.21-0.32,0.02-0.97,0.77-0.94c-0.01,1.34,0.52,2.63,0.25,3.98c0.51,0.23,0.62-0.1,0.76-0.32
			c0.04-0.24-0.15-0.3-0.24-0.45c0.14-0.05,0.28-0.1,0.42-0.15c0.2-0.27-0.08-0.63,0.19-0.91c0.09,0.02,0.26,0.02,0.3,0.08
			c0.19,0.36,0.36,0.73,0.56,1.17c0.05,0.16-0.28,0.21-0.26,0.44c-0.03,0.19,0.17,0.24,0.27,0.43c-0.34,0.56-0.45,1.17-0.02,1.73
			c-0.03,0.25-0.33,0.31-0.23,0.6c0.21,0.33,0.56-0.01,0.8,0.16c0.26-0.27-0.2-0.3-0.12-0.54c0.19-0.29,0.54-0.32,0.81-0.46
			c0.06,0.06,0.16,0.11,0.16,0.16c0.01,0.44,0.03,0.88,0,1.32c-0.03,0.52,0.08,0.98,0.37,1.41c0.2,0,0.4,0,0.6,0
			c0.04,0.18-0.12,0.46,0.24,0.48c0.04,0.24,0.21,0.35,0.41,0.46c0.09-0.13,0.12-0.26-0.01-0.44c-0.11-0.01-0.25-0.02-0.4-0.02
			c-0.04-0.18,0.12-0.46-0.24-0.48c0-0.12-0.04-0.26,0.01-0.35c0.08-0.13,0.22-0.23,0.34-0.36c0.22,0,0.46,0,0.7,0
			c0.56,0.65,0.34,1.45,0.39,2.31c0.19,0.13,0.45,0.3,0.91,0.61c0.03,0,0.14-0.4,0.44-0.33c0.21-0.27-0.05-0.62,0.2-0.93
			c0.77,0.84,0.76,1.75,0.33,2.79c0.41,0.65,0.46,1.66,1.6,1.84c0.2-0.71,0.16-1.46,0.77-2.05c0.04,1.08,0.5,2.04,0.26,3.01
			c0.42,0.66,0.42,0.66,1.66,1.38c0-0.45,0-0.88,0-1.22c0.18-0.23,0.3-0.38,0.37-0.47c0.8,0,1.29,1.46,0.88,2.36
			c-0.04,0.19,0.13,0.27,0.28,0.45c-0.32,0.35-0.29,0.81-0.28,1.27c-0.15,0.03-0.31-0.07-0.46,0.1c0,0.16,0,0.35,0,0.52
			c0.77,0.31,1.23,1.08,2.05,1.33c0.09-0.2,0.16-0.43,0.01-0.45c-0.51-0.05-0.39-0.57-0.64-0.79c0.61,0.18,1.21,0.36,1.67,0.83
			c0.43,0.44,0.99,0.67,1.48,1.01c0.16,0.11,0.3,0.04,0.45,0.07c0.08,0.16,0.16,0.32,0.24,0.48c-0.45-0.01-0.93,0.12-1.32-0.45
			c-0.04,0.71-0.04,0.71,0.6,1.05c-0.15,0.21-0.36,0.09-0.55,0.12c-0.36,0.23-0.62,0.55-0.77,0.96c-0.52-0.04-0.53,0.46-0.76,0.73
			c-0.33,0-0.56-0.51-0.96-0.19c-0.15,0.1-0.05,0.27-0.08,0.42c-0.23,0.05-0.51-0.13-0.71,0.13c0.11,0.11,0.22,0.22,0.33,0.33
			c0.22-0.04,0.55,0.23,0.62-0.22c0.59-0.08,1.03,0.22,1.44,0.58c-0.08,0.19-0.28,0.1-0.42,0.19c-0.02,0.27,0.32,0.28,0.32,0.62
			c-0.1,0.2-0.26,0.52-0.47,0.92c-0.16,0.08-0.42,0.21-0.71,0.36c-1.1-0.4-2.05-1.17-3.12-1.55c-0.23,0.3-0.14,0.5-0.15,0.69
			c0.46,0.52,1.26,0.57,1.96,1.26c-1.16-0.04-1.96,0.42-2.87,0.26c-0.03,0.3,0.21,0.47,0.3,0.47c1.01,0.07,1.67,0.7,2.32,1.38
			c0.14,0.14,0.28,0.28,0.44,0.44c-0.1,0.11-0.2,0.22-0.3,0.32c-0.57,0.24-1.05-0.16-1.57-0.18c-0.52-0.02-0.98-0.1-1.37-0.49
			c-0.06-0.06-0.23-0.01-0.35-0.01c0-0.12,0-0.24,0-0.35c-0.87-0.53-1.9-0.78-2.67-1.49c-0.11-0.1-0.22-0.1-0.32-0.08
			c-0.4,0.08-0.66-0.13-0.89-0.41c-0.13-0.15-0.29-0.05-0.44-0.08c0.02-0.12-0.03-0.19-0.14-0.21c-0.02,0-0.07,0.05-0.07,0.07
			c0.02,0.11,0.1,0.16,0.21,0.14c0,0.16,0,0.32,0,0.48c-0.33,0.09-0.53-0.12-0.69-0.34c-0.15-0.21-0.48-0.06-0.59-0.36
			c-0.39,0-0.78,0-1.1,0c-0.39-0.21-0.72-0.38-1.01-0.53c-0.17,0.09-0.23,0.18-0.19,0.39c0.46,0.23,0.97,0.49,1.43,0.72
			c0,0.14,0.01,0.21,0,0.22c-0.25,0.14-0.51,0.28-0.68,0.37c-0.54,0.05-0.74-0.37-1.18-0.4c-0.01,0.01-0.1,0.09-0.23,0.21
			c-0.89-0.49-1.68-1.27-2.85-1.25c-0.45-0.69-1.44-0.87-1.8-1.69c0.19-0.4,0.51-0.15,0.72-0.28c0.06,0.22-0.09,0.43,0.16,0.53
			c0.16-0.17,0.14-0.32-0.16-0.53c-0.2-0.49-0.78-0.58-1.2-0.89c-0.29-0.22-0.65-0.34-0.95-0.49c-0.36,0.01-0.14,0.35-0.32,0.45
			c-0.06-0.04-0.12-0.06-0.16-0.11c-0.6-0.59-1.19-1.19-1.78-1.78c-0.14-0.14-0.26-0.37-0.43-0.41c-1.19-0.28-1.57-1.34-2.18-2.19
			c-0.16-0.22-0.38-0.41-0.59-0.6c-2.19-2.04-3.81-4.53-5.51-6.95c-0.17-0.93-1.03-1.39-1.46-2.15c-0.44-0.78-0.9-1.56-1.45-2.29
			c-0.23-0.3-0.5-0.72-0.16-1.18c-0.25-0.05-0.36-0.07-0.5-0.1c-0.17-0.31-0.04-0.67-0.08-1.03c-0.24-0.2-0.62-0.22-0.72-0.63
			c-0.11-0.43-0.34-0.82-0.46-1.25c-0.05-0.19-0.05-0.37-0.21-0.52c-0.76-0.7-0.83-1.73-1.23-2.61c-0.09-0.2-0.01-0.47-0.01-0.75
			c-0.9-0.83-0.91-2.16-1.69-3.19c0.22-0.61-0.34-1.19-0.23-1.86c-0.38-0.35-0.25-0.81-0.23-1.22c0.04-0.68-0.2-1.2-0.74-1.69
			c0.21-0.66-0.3-1.28-0.24-1.99c0.05-0.68,0.01-1.36,0.01-2.13c-0.23-0.18-0.52-0.4-0.76-0.59c0.27-1.36-0.69-2.61,0.17-3.9
			c-0.29-0.13-0.51-0.23-0.61-0.28c0-0.93-0.03-1.65,0.01-2.37c0.03-0.74-0.17-1.43-0.42-2.11c-0.07-0.2-0.12-0.47-0.04-0.55
			c0.45-0.46,0.09-0.99,0.23-1.43c-0.21-0.24-0.47-0.39-0.52-0.63c0.14-0.44,0.56-0.07,0.72-0.33c-0.05-0.26-0.37-0.04-0.48-0.34
			c0.32-0.32,0.26-0.79,0.26-1.25c0-0.88,0.04-1.76-0.01-2.64c-0.08-1.26,0.43-2.48,0.25-3.74c0.49-1.39,0.31-2.92,0.94-4.29
			c0.11-0.23,0.05-0.55,0.02-0.83C2.7,55,3.1,53.66,3.68,52.43c0.37-0.79,0.41-1.67,0.88-2.4c-0.01-1.28,0.71-2.35,1-3.55
			c0.22-0.88,0.65-1.73,0.92-2.61c0.76-0.37,0.67-1.23,1.04-1.83c0.41-0.67,0.67-1.4,0.91-2.15c0.09-0.29,0.04-0.79,0.6-0.83
			c0.14-0.01,0.3-0.42,0.3-0.56c0.02-0.61,0.44-1.03,0.64-1.55c0.24-0.61,0.55-1.18,1.06-1.54c0.01-0.21-0.03-0.41,0.04-0.52
			c1.03-1.43,1.99-2.92,2.86-4.46c0.15-0.27,0.41-0.47,0.61-0.71c0.58-0.71,1.21-1.39,1.71-2.17c0.07-0.12,0.06-0.22,0.08-0.37
			c0.86-0.02,1.2-0.63,1.43-1.36c0.36-1.12,1.34-2.32,2.3-2.83c0.13-0.34,0.25-0.65,0.35-0.92c0.26,0,0.42,0,0.74,0
			c0.25-0.26,0.58-0.6,0.93-0.97c0.15-0.03,0.23,0.13,0.37,0.25c0.11-0.14,0.27-0.27,0.34-0.43c0.29-0.63,0.57-1.25,1.3-1.5
			c0.14-0.05,0.28-0.19,0.34-0.32c0.3-0.72,1-1.02,1.51-1.52c0.97-0.97,2.14-1.68,3.12-2.62c0.03-0.03,0.05-0.08,0.09-0.08
			c0.36-0.03,0.62-0.26,0.9-0.43c0.27-0.17,0.17-0.61,0.63-0.79c0.15,0,0.42,0,0.67,0c0.14-0.36,0.31-0.55,0.66-0.74
			c1.5-0.84,3.03-1.65,4.4-2.69c0.26-0.2,0.51-0.09,0.75-0.23c0.87-0.51,1.92-0.56,2.79-1.1c0.2-0.12,0.53-0.04,0.82-0.06
			c0.01-0.15,0.01-0.26,0.02-0.35c-0.27-0.23-0.3,0.49-0.49,0.2c-0.23-0.14-0.22-0.26-0.22-0.38c0.05-0.05,0.11-0.16,0.15-0.15
			c0.41,0.08,0.81-0.03,1.09-0.26c0.55-0.45,1.14-0.7,1.84-0.8c0.57-0.08,1.06-0.41,1.34-0.84c0.29-0.06,0.37,0.11,0.49,0.2
			c0.7,0.06,0.81-0.66,1.24-0.95c0.99,0.45,1.79-0.06,2.8-0.47c0.42,0,1.02,0,1.62,0c-0.03,0.15,0.06,0.22,0.18,0.24
			c0.16,0.02,0.32-0.01,0.3-0.24c0.31-0.04,0.63,0.08,0.91-0.05c0.14-0.26-0.02-0.39-0.2-0.56c0.21-0.17,0.42-0.34,0.7-0.56
			c1.06-0.03,1.06-0.03,1.83-0.5c0.48,0,0.96,0,1.43,0c0.18-0.09,0.1-0.28,0.17-0.4c0.33-0.19,0.6-0.08,0.85,0.17
			c0.32-0.07,0.6-0.39,0.97-0.25c0.3,0.11,0.53-0.29,0.8-0.1c0.38,0.26,0.64-0.01,0.99-0.17c0.53,0.73,1.09-0.12,1.67,0.02
			c0.58,0.13,1.14-0.07,1.69-0.23c0.57-0.17,1.18-0.21,1.69-0.49c0.33,0.15,0.11,0.44,0.22,0.66c0.15,0.18,0.37,0.02,0.52,0.09
			c0.21-0.09,0.15-0.27,0.22-0.49c0.36,0,0.75,0,1.15,0.02c0.06,0.48-0.26,0.64-0.65,0.77c-0.05,0.02-0.05,0.2-0.08,0.29
			c0.23,0.2,0.45,0.14,0.67,0.06c0.27-0.34,0.55-0.67,0.89-1.1c-0.34,0-0.53,0-0.83-0.02c0.04-0.42,0.35-0.24,0.55-0.25
			c0.57-0.04,1.17,0.09,1.67-0.26c0.22,0.08,0.17,0.26,0.21,0.4c0.97-0.19,1.94-0.3,2.91,0.02c0.14,0.05,0.34,0.11,0.45,0.06
			c0.55-0.29,1.05-0.36,1.62-0.01c0.17,0.11,0.53,0.11,0.7,0c0.82-0.52,1.52,0,2.26,0.19c0.16,0.04,0.38,0.11,0.44,0.05
			c0.48-0.47,0.96-0.16,1.36,0.03c0.45,0.22,0.89,0.24,1.35,0.21c0.44-0.03,0.82,0.13,1.22,0.24c0.4,0.11,0.88-0.17,1.22,0.24
			c0.87-0.14,1.64,0.39,2.52,0.24c-0.01,0.21-0.02,0.32-0.02,0.44c-0.39-0.22-0.77-0.28-1.22-0.06c0.63,0.26,1.19,0.67,1.83,0.12
			c0.61,0.07,1.25-0.2,1.85,0.14c0.33,0.19,0.7,0.03,1.05,0.09c0.11,0.11,0.22,0.22,0.34,0.34c-0.26,0.3-0.68-0.02-0.9,0.18
			c-0.25,0.4,0.42,0.46,0.15,0.81c-0.04,0.11-0.2,0.15-0.28,0.09c-0.19-0.14-0.4-0.35-0.62-0.22c-0.95,0.57-1.59-0.26-2.49-0.47
			c-0.89,0.81-1.8-0.36-2.77-0.26c-0.02,0.16-0.04,0.23-0.06,0.39c0.88,0.12,1.64,0.63,2.59,0.6c0.44-0.02,0.96,0.03,1.31,0.57
			c0.27,0.41,0.88,0.41,1.39,0.36c-0.01,0.17,0.07,0.25,0.24,0.24c0.04,0.17-0.11,0.47,0.19,0.47c0.39-0.01,0.21,0.36,0.39,0.47
			c0.19,0.02,0.38,0.04,0.57,0.06c0.03,0.13,0.06,0.24,0.08,0.36c0.16,0.18,0.37,0.04,0.57,0.09c0.26,0.15,0.04,0.44,0.18,0.65
			c0.07,0.11,0.21,0.08,0.31,0.06c0.84-0.2,0.84-0.21,1.55,0.12c0,0.16,0,0.32,0,0.46c0.09,0.19,0.28,0.11,0.4,0.19
			c0.09,0.06,0.18,0.14,0.26,0.21c0.26-0.12,0.49-0.22,0.74-0.33c-0.05-0.11-0.11-0.22-0.16-0.33c0.28-0.23,0.82,0.14,1.15,0.77
			c-0.17,0.24-0.46,0.02-0.73,0.23c0.35,0.23,0.48,0.62,0.66,0.92c0.42,0.3,1.02,0.12,1.27,0.64c-0.71,0.13-1.34-0.42-2.07-0.21
			c-0.09,0.09-0.2,0.2-0.32,0.32c0.33,0.18,0.67,0.37,1,0.55c-0.08,0.15-0.14,0.28-0.14,0.27c-0.43-0.2-0.99-0.11-1.33-0.57
			c0.1-0.14,0.29-0.25,0.2-0.52c-0.08-0.07-0.2-0.17-0.35-0.31c-0.63-0.15-1.23,0.07-1.73,0.48c-0.61-0.34-1.26-0.51-1.74-0.98
			c0.15-0.01,0.29-0.02,0.43-0.03c0.07-0.18,0.1-0.32-0.06-0.45c-0.09,0.01-0.19,0.02-0.34,0.03c-0.01,0.16-0.02,0.3-0.03,0.45
			c-0.41,0.13-0.73-0.54-1.17-0.15c-0.21,0.49,0.33,0.3,0.44,0.5c-0.16,0.3-0.54-0.03-0.73,0.28c0.67,0.16,1.41,0.13,1.86,0.6
			c-0.19,0.27-0.35,0.48-0.52,0.71c-0.35-0.51-0.96,0.01-1.28-0.62c-0.02,0.29-0.03,0.39-0.05,0.61c0.65-0.14,1.17,0.32,1.83,0.23
			c0.23,0.38,0.59,0.58,1.04,0.5c0.05,0.4,0.05,0.4,0.2,0.46c0.38-0.17,0.38-0.17,0.75-0.1c-0.06,0.08-0.13,0.16-0.28,0.34
			c0.79,0,1.49,0,1.9,0c0.63,0.25,0.55,0.73,0.95,0.96c0.35,0,0.78,0,1.13,0c0.21,0.12,0.14,0.25,0.16,0.37
			c0.16,0.25,0.48,0,0.64,0.17c0.23,0.24,0.47,0.22,0.74,0.12c0.05-0.14,0.1-0.28,0.14-0.41c0.77,0.1,1.41,0.44,1.29,0.66
			c-0.19,0.16-0.48-0.08-0.65,0.17c0,0.08,0,0.16,0,0.21c1.31,0.62,2.61,1.23,4.01,1.89c0.29-0.22,0.68-0.39,1.17-0.27
			c0.31,0.48,1.1,0.5,1.29,1.17c-0.13,0.01-0.27,0.02-0.52,0.04c0.15,0.25-0.05,0.47,0.18,0.68c0.09-0.01,0.2-0.02,0.33-0.03
			c0-0.24,0-0.46,0.02-0.69c0.38,0.01,0.78-0.08,0.94,0.44c-0.2,0.13-0.47-0.07-0.72,0.2c0.37,0.01,0.53,0.36,0.87,0.29
			c0.34-0.1,0.32-0.47,0.49-0.64c0.39,0.21,0.93,0.28,0.85,0.9c-0.45-0.08-0.8,0.17-1.09,0.3c0.15,0.22,0.33,0.47,0.44,0.64
			c0.46,0.06,0.82-0.08,1.13,0.12c0,0.19,0,0.35,0,0.5c0.44,0.12,0.65,0.59,1.01,0.73c0.44,0.17,0.42,0.69,0.99,0.88
			c0.09,0.06,0.39-0.19,0.58,0.01c0.12,0.31-0.05,0.6,0.12,0.85c0.22,0.03,0.45,0.14,0.64-0.08c0-0.2,0-0.4,0-0.6
			c0.4,0.11,0.54,0.55,0.89,0.72c0.38-0.15,1.7-0.41,1.75-0.34c0.13,0.3-0.41,0.4-0.22,0.72c0.28,0.28,0.67,0.51,0.81,0.85
			c0.17,0.39,0.67,0.41,0.74,0.73c0.1,0.47,0.53,0.49,0.78,0.72c0.28,0.25,0.25,0.54,0.32,0.83c0.01,0.04,0.13,0.06,0.23,0.1
			c0.32,0,0.1-0.42,0.34-0.5c0.44,0,0.87,0,1.31,0c-0.14,0.49,0.15,0.8,0.48,1.07c-0.19,0.26-0.49,0-0.67,0.19
			c0.27,0.44-0.28,0.87,0.04,1.34c0.15,0.15,0.45-0.1,0.61,0.12c0.11,0.25-0.06,0.37-0.21,0.51c0.34,0.33,0.68,0.66,1.05,1.02
			c0.48,0.11,0.9,0.24,0.99,0.58c0.13,0.48,0.66,0.64,0.71,1.14c0.04,0.46,0.76,0.57,0.65,1.14c0.43,0.29,0.48,0.89,0.92,1.15
			c0,0.29,0,0.57,0,0.85c-0.28-0.08-0.37-0.3-0.5-0.54c-0.31-0.56-0.59-1.16-1.06-1.62c-0.44,0.39,0.3,0.5,0.13,0.85
			c-0.15,0.31,0.1,0.57,0.23,0.83c-0.33-0.01-0.7,0.09-0.96-0.45c0.01-0.25,0.03-0.66-0.24-0.99c0.12,0.02,0.19-0.03,0.21-0.14
			c0-0.02-0.05-0.07-0.07-0.07c-0.11,0.02-0.16,0.1-0.14,0.21c-0.2,0-0.4,0-0.6,0c-0.28-0.24-0.54-0.48-0.32-0.91
			c-0.29-0.03-0.48-0.05-0.67-0.07c-0.12-0.23-0.17-0.51-0.42-0.66c-0.56-0.2-1.01,0.28-1.53,0.25c-0.25,0.45,0.42,0.55,0.22,0.88
			c0.39,0.18,0.49-0.37,0.85-0.16c0.11,0.27,0.08,0.57,0.02,0.86c-0.1,0.02-0.18,0.07-0.24,0.05c-0.59-0.17-0.95-0.64-1.36-1.05
			c-0.31-0.31-0.62-0.62-0.94-0.94c-0.1-0.17-0.04-0.36-0.02-0.6c0.37-0.04,0.42,0.59,0.83,0.41c0.17-0.12,0.02-0.2-0.05-0.25
			c-0.12-0.09-0.07-0.21-0.08-0.32c0.09-0.18,0.28-0.1,0.41-0.18c0.02-0.03,0.06-0.06,0.07-0.09c0.15-0.52-0.21-0.96-0.29-1.44
			c-0.03-0.23-0.34-0.43-0.67-0.34c0.08-0.55-0.36-0.68-0.73-0.86c0-0.16,0-0.32,0-0.47c-0.2-0.2-0.4-0.4-0.59-0.59
			c-0.39-0.03-0.85,0.14-1.04-0.41c0.14-0.11,0.24-0.22,0.17-0.53c-0.29-0.27-0.66-0.62-1.03-0.97c-0.38-0.35-0.81-0.56-1.33-0.49
			c-0.01-0.15-0.02-0.29-0.03-0.41c-0.19-0.11-0.32-0.11-0.45,0.04c0.01,0.09,0.02,0.2,0.03,0.34c0.16,0.01,0.3,0.02,0.45,0.03
			c-0.04,0.19,0.17,0.23,0.22,0.37c-0.09,0.2-0.41,0-0.48,0.35c0.32,0.62,0.98,0.88,1.55,1.22c0.23-0.18,0.12-0.35,0.15-0.5
			c0.25,0.05,0.38,0.23,0.48,0.44c0.19,0.36-0.26,0.53-0.25,0.85c0,0.15-0.02-0.04,0.07,0.1c0.18,0.17,0.47-0.07,0.63,0.14
			c0.1,0.21-0.11,0.49,0.15,0.62c0.32,0.14,0.38-0.3,0.66-0.22c0.19,0.1,0.38,0.23,0.42,0.48c-0.15,0.03-0.32-0.07-0.44,0.08
			c-0.16,0.47,0.18,0.4,0.44,0.4c0,0.2,0,0.4,0,0.6c0.17,0.25,0.45,0.03,0.68,0.19c0.01,0.08,0.01,0.2,0.06,0.3
			c0.04,0.09,0.14,0.16,0.22,0.26c-0.39,0.13-0.72,0.3-0.77,0.77c-0.67-0.23-0.8-1.02-1.41-1.33c-0.6-0.31-0.57-1.3-1.38-1.33
			c-0.13-0.31,0.14-0.39,0.17-0.57c-0.25-0.19-0.54-0.01-0.86-0.15c-0.49-0.5-0.49-0.5-0.63-1.13c-0.09,0.07-0.17,0.13-0.25,0.2
			c-0.8-0.21-1.25-0.95-1.88-1.4c-1.23-0.89-2.35-1.94-3.69-2.67c-0.38-0.21-0.25-0.76-0.72-0.89c-0.04,0.04-0.13,0.12-0.29,0.27
			c-2.29-1.84-4.99-3.03-7.71-4.39c-0.27,0-0.67,0-1.17,0c-0.18-0.22-0.4-0.49-0.57-0.7c-0.26-0.02-0.49,0.02-0.55-0.06
			c-0.42-0.57-1.2-0.44-1.68-0.9c-0.1-0.1-0.38-0.01-0.58-0.01c-0.03-0.07-0.04-0.18-0.08-0.19c-0.14-0.03-0.17,0.07-0.16,0.19
			c-0.12,0-0.24,0-0.35,0c-0.18,0.09-0.1,0.28-0.17,0.4c-0.55,0.32-1.03-0.1-1.52-0.21c-0.48-0.1-0.54-0.86-1.12-1.05
			c0.17-0.06,0.31-0.1,0.45-0.15c0.12-0.15-0.06-0.22-0.12-0.24c-0.37-0.16-0.74-0.35-1.13-0.41c-0.41-0.06-0.84,0.01-1.14-0.3
			c-0.17,0.12-0.2,0.23-0.16,0.43c0.63,0.28,1.55,0.19,1.9,1.06c-0.72,0.17-1.39-0.15-2.04-0.3c-0.61-0.14-1.24-0.26-1.86-0.41
			c-0.55-0.13-0.55-0.09-1.49-0.71c-0.34-0.23-0.76-0.38-1.42-0.17c0.01,0,0.19,0.3-0.04,0.38c-0.34,0.04-0.44-0.28-0.66-0.44
			c-2.1-0.33-4.24-0.37-6.38-0.59c-0.01-0.26-0.02-0.53-0.04-0.84c-0.31-0.08-0.61-0.08-0.96,0c0.1,0.12,0.16,0.2,0.24,0.3
			c-0.25,0.13-0.5,0.25-0.71,0.36c-0.13,0-0.25,0.03-0.29-0.01c-0.28-0.31-0.69-0.33-0.98-0.21c-0.83,0.33-1.69,0.15-2.59,0.26
			c0.17,0.39,0.56,0.03,0.71,0.31c0,0.08,0,0.19,0,0.31c-0.44,0.19-0.96-0.13-1.34,0.29c-0.07,0.07-0.31,0.02-0.46-0.02
			c-1.11-0.29-1.36-0.29-2.35-0.01c-0.26,0.07-0.54,0.07-0.81-0.01c-0.04-0.23,0.39-0.42,0.06-0.67c-0.29,0.15-0.6,0.46-0.92,0.91
			c-0.26,0-0.13-0.21-0.17-0.33c-0.19-0.2-0.42-0.11-0.69-0.05c-0.01,0.26-0.03,0.52-0.04,0.79c-0.04-0.04-0.08-0.08-0.12-0.12
			c-0.09,0.18-0.18,0.35-0.23,0.43c-0.34,0.09-0.37-0.28-0.54-0.22c-0.32,0.07-0.42,0.31-0.6,0.45c-0.39,0.1-0.76,0.09-1.08-0.2
			c-0.48,0.11-0.82,0.59-1.36,0.47c-0.32,0.32-0.63,0.64-0.93,0.95c-0.24,0.01-0.43,0.02-0.67-0.09c-0.83-0.38-1.5,0.08-2.13,0.56
			c-0.01,0.51-0.45,0.13-0.71,0.46c0.01-0.03-0.04,0.11-0.11,0.29c-0.59,0.03-1.14-0.47-1.76-0.18c0.03,0.47-0.48,0.4-0.66,0.66
			c-0.32,0-0.64,0-0.95,0c-0.23,0.17-0.39,0.38-0.43,0.74c-0.73-0.17-1.25,0.31-1.84,0.6c0.26,0.23,0.61,0.02,0.83,0.1
			C48,21,47.98,21.1,47.88,21.11c-1.04,0.11-1.96,0.49-2.65,1.18c-0.33,0.09-0.36-0.26-0.59-0.21c-0.24,0-0.3,0.24-0.47,0.34
			c0.25,0.34,0.69-0.05,0.94,0.25c0.08,0.36-0.26,0.42-0.41,0.75c-0.42-0.41-0.83-0.67-1.26-0.88c-0.33,0.24-0.76,0.26-0.95,0.64
			c0.34,0.3,0.62-0.02,0.92-0.14c0.51,0.09,0.49,0.51,0.55,0.91c0.22,0.03,0.44,0.07,0.56,0.09c-0.28,0.28-0.58,0.58-0.95,0.94
			c-0.08,0.01-0.14-0.17-0.28-0.27c-0.14,0.3-0.28,0.61-0.42,0.93c-0.91,0.18-1.93-0.24-2.79,0.41c0.17,0.23,0.46,0.03,0.58,0.1
			c0.17,0.16,0.13,0.28,0.11,0.39c-0.7,0.31-1.35-0.04-1.99-0.16c-0.28,0.21-0.06,0.45-0.14,0.59c0.14,0.24,0.49,0.02,0.47,0.49
			c-0.39,0.5-0.95,0.91-1.67,1.1c0-0.16,0-0.32,0-0.48c0.12,0.02,0.19-0.03,0.21-0.14c0-0.02-0.05-0.07-0.07-0.07
			c-0.11,0.02-0.16,0.1-0.14,0.21c-0.15,0.03-0.32-0.07-0.44,0.08c-0.16,0.47,0.18,0.4,0.44,0.4c-0.11,0.41-0.4,0.51-0.78,0.48
			c-0.36-0.03-0.57,0.14-0.66,0.48c-0.25,0.05-0.38,0.23-0.47,0.41c-0.08,0.26,0.24,0.32,0.23,0.65c-0.58,0.36-0.69,1.24-1.44,1.58
			c-0.01-0.28-0.24-0.31-0.37-0.21c-0.19,0.16-0.21,0.38,0.13,0.45c-0.05,0.46-0.46,0.12-0.66,0.3c-0.08,0.52-0.25,1.01-0.66,1.38
			c-0.24,0-0.48,0-0.77,0c-0.29,0.78-1.2,1.33-0.99,2.39c0.31-0.1,0.38-0.45,0.68-0.47c0,0.27,0,0.55,0,0.79
			c-0.42,0.67-1.21,0.98-1.5,1.76C30.12,38.72,29.75,38.77,29.53,38.9c-0.14-0.43,0.52-0.75,0.13-1.21
			c-0.37-0.08-0.54,0.32-0.95,0.35C28.99,38.36,28.91,38.84,29.53,38.9z M112.8,27.36c0.01-0.17-0.07-0.25-0.24-0.24
			c-0.06-0.26-0.22-0.42-0.48-0.48c0.01-0.17-0.07-0.25-0.24-0.27c-0.08-0.24-0.22-0.43-0.52-0.45c-0.28,0.07-0.22,0.24-0.12,0.45
			c0.21,0,0.43,0,0.65,0.03c-0.01,0.17,0.07,0.25,0.24,0.24c0,0.14,0,0.28,0,0.48c0.2,0,0.34,0,0.48,0
			C112.55,27.29,112.63,27.37,112.8,27.36c-0.01,0.17,0.07,0.25,0.24,0.24c0.05,0.54,0.18,0.67,0.71,0.71
			c0.01,0.15,0.02,0.3,0.03,0.41c0.19,0.11,0.32,0.11,0.45-0.04c-0.01-0.09-0.02-0.2-0.03-0.34c-0.16-0.01-0.3-0.02-0.45-0.03
			c0-0.22,0-0.44,0-0.72c-0.28,0-0.5,0-0.72,0C113.05,27.43,112.97,27.35,112.8,27.36z M30.24,118.08c0.03,0.07,0.04,0.18,0.08,0.19
			c0.14,0.03,0.17-0.07,0.16-0.18c0.58-0.08,1.14,0.02,1.68,0.22c0.14,0.05,0.2-0.06,0.26-0.27c-0.14-0.14-0.2-0.43-0.4-0.44
			c-0.34-0.02-0.38,0.31-0.63,0.23c-0.28-0.15-0.56-0.44-0.91-0.11c0,0.08,0,0.16,0,0.36C30.4,118.08,30.32,118.08,30.24,118.08
			c0.01-0.17-0.07-0.25-0.71-0.38c0.05,0.05,0.12,0.14,0.13,0.13c0.11-0.06,0.37,0.14,0.32-0.1c-0.04-0.19-0.28-0.19,0.02,0.11
			C29.99,118.01,30.07,118.09,30.24,118.08z M41.52,117.36c-0.02,0.12,0.03,0.19,0.14,0.21c0.02,0,0.07-0.05,0.07-0.07
			C41.71,117.39,41.64,117.34,41.52,117.36c0.02-0.12-0.03-0.19-0.14-0.21c-0.02,0-0.07,0.05-0.07,0.07
			C41.33,117.33,41.4,117.38,41.52,117.36z M117.6,32.64c0.02-0.12-0.03-0.19-0.14-0.21c-0.02,0-0.07,0.05-0.07,0.07
			C117.41,32.61,117.48,32.66,117.6,32.64c-0.02,0.12,0.03,0.19,0.14,0.21c0.02,0,0.07-0.05,0.07-0.07
			C117.79,32.67,117.72,32.62,117.6,32.64z M97.92,19.44c-0.02,0.12,0.03,0.19,0.14,0.21c0.02,0,0.07-0.05,0.07-0.07
			c-0.02-0.11-0.1-0.16-0.68-0.29c0.04,0.05,0.11,0.14,0.12,0.14c0.11-0.06,0.37,0.14,0.32-0.1C97.86,19.14,97.62,19.15,97.92,19.44
			z M86.4,12.24c-0.02,0.12,0.03,0.19,0.14,0.21c0.02,0,0.07-0.05,0.07-0.07c-0.02-0.11-0.1-0.16-0.68-0.29
			c0.04,0.05,0.11,0.14,0.12,0.14c0.11-0.06,0.37,0.14,0.32-0.1C86.34,11.94,86.1,11.95,86.4,12.24z M28.31,120.48
			c0.01,0.14,0.02,0.29,0.03,0.4c0.18,0.11,0.31,0.12,0.43-0.01C28.67,120.69,28.55,120.52,28.31,120.48
			c-0.03-0.23-0.2-0.35-0.4-0.46c-0.09,0.13-0.12,0.26,0.01,0.44C28.04,120.47,28.18,120.48,28.31,120.48z M119.02,33.5
			c-0.04-0.05-0.11-0.14-0.12-0.14c-0.11,0.06-0.37-0.14-0.32,0.1c0.04,0.19,0.28,0.19-0.01-0.1c-0.01-0.15-0.02-0.3-0.03-0.41
			c-0.19-0.11-0.32-0.11-0.45,0.04c0.01,0.09,0.02,0.2,0.03,0.34C118.27,33.35,118.42,33.36,119.02,33.5z M115.2,28.56
			c0.02-0.12-0.03-0.19-0.14-0.21c-0.02,0-0.07,0.05-0.07,0.07C115.01,28.53,115.08,28.58,115.2,28.56c0,0.15,0.01,0.29,0.02,0.41
			c0.19,0.11,0.32,0.11,0.45-0.04c-0.01-0.09-0.02-0.2-0.03-0.34C115.49,28.57,115.34,28.56,115.2,28.56z M26.13,40.8
			c-0.24,0.08-0.43,0.22-0.45,0.52c0.07,0.28,0.24,0.22,0.45,0.12c0-0.21,0-0.43,0.02-0.64c0.15-0.01,0.3-0.02,0.44-0.03
			c0.07-0.18,0.1-0.32-0.06-0.45c-0.09,0.01-0.19,0.02-0.34,0.03C26.17,40.51,26.16,40.66,26.13,40.8z M37.44,111.36
			c0.02-0.12-0.03-0.19-0.14-0.21c-0.02,0-0.07,0.05-0.07,0.07c0.02,0.11,0.1,0.16,0.21,0.21c-0.02,0.39,0.19,0.63,0.57,0.66
			C37.82,111.86,37.61,111.63,37.44,111.36z M31.21,119.53c-0.01-0.15-0.02-0.3-0.03-0.41c-0.19-0.11-0.32-0.11-0.45,0.04
			c0.01,0.09,0.02,0.2,0.03,0.34c0.16,0.01,0.3,0.02,0.45,0.06c0.08,0.24,0.22,0.43,0.52,0.45c0.28-0.07,0.22-0.24,0.12-0.45
			C31.64,119.55,31.42,119.55,31.21,119.53z M105.61,22.8c-0.01-0.14-0.02-0.29-0.03-0.43c-0.17-0.05-0.31-0.1-0.43,0.04
			c0.1,0.19,0.22,0.36,0.43,0.42c0.21,0.41,0.5,0.6,0.98,0.35c-0.02-0.12-0.03-0.22-0.05-0.35C106.2,22.83,105.9,22.83,105.61,22.8z
			 M89.77,10.76c0.3,0,0.61,0,0.99,0c-0.36-0.52-0.78-0.51-1.23-0.35c0.05,0.16,0.27,0.2,0.36,0.36c-0.28,0.08-0.5-0.07-0.59,0.18
			C89.46,11.1,89.62,11.08,89.77,10.76z M40.8,116.88c-0.02,0.12,0.03,0.19,0.14,0.21c0.02,0,0.07-0.05,0.07-0.07
			c-0.02-0.11-0.1-0.16-1.19-0.11c0.82,0.2,0.95,0.1,0.89-0.51C40.3,116.36,40.12,116.73,40.8,116.88z M115.2,29.76
			c0.02-0.12-0.03-0.19-0.14-0.21c-0.02,0-0.07,0.05-0.07,0.07c0.02,0.11,0.1,0.16,0.23,0.14c-0.14,0.39,0.28,0.6,0.3,0.94
			c0.23-0.01,0.48,0.15,0.68-0.18C115.95,30.17,115.8,29.71,115.2,29.76z M100.14,19.44c-0.55,0.02-0.67-0.35-1.03-0.24
			c-0.07,0.02-0.13,0.05-0.22,0.09c0,0.14,0,0.3,0,0.62c0.19,0.16,0.47,0.42,0.77,0.67c0.14,0.11,0.28,0.08,0.4-0.05
			c0.08-0.55-0.45-0.51-0.72-0.74c0.17-0.08,0.33-0.15,0.5-0.39c0.3,0,0.61,0,1.05,0c-0.31-0.28-0.52-0.49-0.75-0.67
			c-0.04-0.03-0.14,0.02-0.22,0.03C99.76,18.97,99.87,19.21,100.14,19.44z M42.48,24c-0.81,0.23-1.22,0.77-0.88,1.16
			c0.27,0.08,0.59-0.04,0.78,0.25c0.33-0.28,0.5-0.56,0.23-0.93c-0.13,0-0.25,0-0.37,0C42.32,24.32,42.4,24.16,42.48,24
			c0.12,0.02,0.19-0.03,0.21-0.14c0-0.02-0.05-0.07-0.07-0.07C42.51,23.81,42.46,23.88,42.48,24z M39.36,112.56
			c0.31-0.12,0.46,0.21,0.71,0.23c0.01,0.15,0.02,0.3,0.03,0.41c0.19,0.11,0.32,0.11,0.45-0.04c-0.01-0.09-0.02-0.2-0.03-0.34
			c-0.16-0.01-0.3-0.02-0.45-0.03c0.03-0.15-0.07-0.32,0.08-0.44c0.13-0.07,0.32,0.01,0.39-0.17c-0.14-0.14-0.28-0.28-0.42-0.42
			c-0.14-0.19,0.08-0.48-0.17-0.65c-0.12,0-0.24,0-0.34,0c-0.14-0.26-0.27-0.5-0.36-0.67c-0.25-0.08-0.32,0-0.41,0.16
			c0.13,0.31,0.31,0.57,0.75,0.51c-0.04,0.18,0.12,0.46-0.7,0.34c0.04,0.05,0.11,0.14,0.12,0.14c0.11-0.06,0.37,0.14,0.32-0.1
			c-0.04-0.19-0.28-0.19,0.02,0.11c0,0.32,0,0.64,0.6,1.99c-0.26-0.63-0.49-0.97-1.03-1.04C39.25,112.87,39.53,113.15,39.36,112.56z
			 M81.61,9.33c0.03-0.17-0.18-0.21-0.23-0.35c0.16-0.27,0.54,0.07,0.69-0.24c-0.11-0.11-0.23-0.23-0.35-0.35
			c-0.42,0.05-0.87-0.07-1.3,0.09c0.07,0.29,0.43,0,0.43,0.38c-0.36,0.11-0.8-0.11-1.21,0.16c0.71,0.19,1.3,0.49,1.99,0.35
			c-0.09,0.13,0.07,0.32-0.07,0.41c-0.45,0.24-0.73-0.24-1.12-0.18c-0.11,0.02-0.21,0.02-0.24,0.13c0.11,0.13,0.22,0.24,0.37,0.41
			c0.89-0.31,1.72,0.29,2.56,0.28c0.72-0.05,0.85,0.77,1.4,0.89c0.29-0.1,0.1-0.41,0.32-0.5c0.11,0.26,0.41,0.18,0.58,0.34
			c-0.04,0.06-0.09,0.11-0.14,0.17c-0.03,0.03-0.08,0.08-0.08,0.08c-0.12-0.11,0.03,0.24,0.08,0.07c0.32,0.26,0.42-0.25,0.72-0.21
			c0.28,0.04,0.62,0.13,0.87-0.11c0.06-0.33-0.22-0.41-0.36-0.6c-0.4,0-0.8,0-1.2,0c-0.14-0.14-0.28-0.28-0.42-0.42
			c-0.12-0.12-0.43,0.04-0.42-0.29c-0.05-0.39,0.42-0.13,0.48-0.39C84.95,9.36,85,9.23,84.83,9.13c-0.34-0.08-0.49,0.32-0.88,0.3
			c0.14,0.14,0.2,0.2,0.28,0.28c-0.22,0.28-0.48,0.47-0.86,0.34c-0.39-0.2-0.28-0.83-0.91-0.95C82.19,8.93,81.98,9.49,81.61,9.33z
			 M100.57,20.83c1.42,0.58,1.42,0.58,1.88,1.27c0.22,0,0.45,0,0.68,0c0.17,0.68,0.66,0.84,1.2,0.94c0.18-0.4-0.08-0.53-0.24-0.66
			c-0.14-0.11-0.41-0.06-0.48-0.27c-0.13-0.43-0.52-0.66-0.78-0.96c-0.27-0.31-0.82-0.26-1.22-0.5c-0.28-0.17-0.63-0.22-0.89-0.45
			c-0.06-0.06-0.21-0.02-0.31-0.02C100.33,20.44,100.7,20.54,100.57,20.83z M72.67,6.19c0.14-0.29,0.65-0.36,0.51-0.81
			c-0.2-0.22-0.5,0.04-0.67-0.19c-0.03-0.11-0.05-0.22-0.08-0.33c-0.19-0.12-0.38-0.05-0.51-0.05c-0.26,0.08-0.08,0.32-0.21,0.4
			c-0.21,0.17-0.5-0.06-0.67,0.18c0.01,0.11-0.05,0.24,0.08,0.33c0.36,0.14,0.77-0.09,1.12,0.15c-0.17,0.29-0.55-0.04-0.74,0.32
			C71.87,6.19,72.22,6.19,72.67,6.19z M80.62,14.16c-0.56,0-1.11-0.02-1.65,0.01c-0.49,0.02-0.95-0.55-1.55-0.01
			c0.34,0.21,0.56,0.48,0.96,0.48c0.74,0,1.48,0,2.24,0C80.62,14.45,80.62,14.35,80.62,14.16z M81.6,5.2
			c0.05-0.53-0.65-0.61-0.53-1.15c-0.52,0.23-0.91-0.57-1.48,0.01c0.32,0.34,0.63,0.67,0.95,1C80.95,4.79,81.14,5.44,81.6,5.2z
			 M78.16,4.54C77.85,4.34,77.3,4.28,77.14,4c-0.44-0.78-1.08-0.63-1.75-0.62c0.13,0.4,0.39,0.5,0.72,0.46
			c0.52-0.07,0.65,0.3,0.77,0.7C77.3,4.54,77.73,4.54,78.16,4.54z M71.32,3.55c-0.24-0.47,0.38-0.49,0.39-0.85
			c-0.47,0-0.93,0-1.36,0c-0.12,0.3,0.09,0.4,0.19,0.53c-0.06,0.24-0.38,0.02-0.45,0.32C70.44,3.55,70.79,3.55,71.32,3.55z
			 M62.38,3.16c-0.63,0-1.24,0-1.84,0c-0.07,0.16-0.28,0.19-0.24,0.4c0.69,0,1.38,0,2.09,0C62.38,3.41,62.38,3.3,62.38,3.16z
			 M80.89,14.75c0.69,0.58,1.6,0.18,2.35,0.66c0.15-0.76-0.53-0.48-0.7-0.81c-0.13,0.1-0.25,0.18-0.4,0.29
			C81.74,14.76,81.35,14.4,80.89,14.75z M77.05,8.84c0.43,0.25,0.9,0.44,1.43,0.51c0.23,0.03,0.24-0.14,0.24-0.35
			c-0.4-0.2-0.82-0.42-1.32-0.67C77.3,8.49,77.19,8.65,77.05,8.84z M89.04,16.67c-0.43-0.21-0.86-0.43-1.26-0.62
			c-0.16,0.1-0.2,0.21-0.17,0.43c0.44,0.06,0.73,0.36,0.79,0.82c0.27-0.05,0.49,0.07,0.64-0.14C89.04,17,89.04,16.84,89.04,16.67z
			 M106.04,25.12c0.62-0.39,1,0.15,1.71,0.02c-0.83-0.32-1.17-0.96-1.8-1.15C105.66,24.42,106.21,24.56,106.04,25.12z M73.93,4.12
			c-0.1,0.51-0.62,0.37-0.94,0.61c0.66,0.02,1.35,0.23,1.89-0.34c-0.01-0.08-0.02-0.15-0.04-0.27C74.59,4.12,74.33,4.12,73.93,4.12z
			 M107.47,25.47c0.32,0.53,0.96,0.99,1.22,0.87c0-0.16,0-0.35,0-0.58c-0.22-0.09-0.48-0.22-0.75-0.31
			C107.84,25.41,107.71,25.45,107.47,25.47z M43.13,115.63c-0.1-0.67-0.42-0.87-1.33-0.83C42.37,115.43,42.37,115.43,43.13,115.63z
			 M65.47,6.89c1.27,0.09,1.27,0.09,1.69-0.37c-0.47,0-0.92,0-1.33,0C65.71,6.65,65.63,6.73,65.47,6.89z M69.27,3.92
			c-0.42,0.47-0.88,0.4-1.33,0.4c0,0.19,0,0.3,0,0.43c0.57,0.19,0.95-0.28,1.44-0.27C69.35,4.3,69.33,4.23,69.27,3.92z M63.86,9.53
			c0.97,0.08,0.97,0.08,1.38-0.36c-0.47,0-0.92,0-1.38,0C63.86,9.32,63.86,9.42,63.86,9.53z M71.53,3.8
			c0.61,0.09,1.17,0.13,1.67-0.39C72.58,3.32,72.02,3.28,71.53,3.8z M87.58,4.3c-0.43,0.07-0.91-0.17-1.15,0.45c0.4,0,0.77,0,1.15,0
			C87.58,4.61,87.58,4.5,87.58,4.3z M70.64,5.5c-0.15-0.28,0.01-0.49-0.16-0.66c-0.22-0.03-0.45-0.13-0.66,0.1
			c0.09,0.16-0.08,0.37,0.11,0.56C70.1,5.5,70.29,5.5,70.64,5.5z M111.73,25.89c0.52-0.09,0.69,0.31,1.05,0.56
			c-0.2-0.77-0.46-1.06-0.83-0.99C111.91,25.53,111.87,25.59,111.73,25.89z M76.78,8.38c-0.32,0.08-0.61-0.07-0.92,0.1
			c0,0.11,0,0.22,0,0.42c0.32-0.08,0.61,0.07,0.92-0.1C76.78,8.69,76.78,8.58,76.78,8.38z M92.44,16.62
			c-0.14-0.27-0.22-0.61-0.68-0.52c-0.12,0.25-0.14,0.46,0,0.67C91.98,16.78,92.22,16.91,92.44,16.62z M108.51,24.79
			c-0.13-0.25-0.26-0.53-0.39-0.78c-0.19-0.02-0.29,0.01-0.4,0.16c0.13,0.25,0.26,0.53,0.39,0.78
			C108.31,24.97,108.41,24.94,108.51,24.79z M72.53,7.72c1.02,0.55,1.02,0.55,1.12,0C73.27,7.72,72.9,7.72,72.53,7.72z M84.22,7.98
			c-0.31-0.09-0.61-0.09-0.92,0c0,0.13,0,0.24,0,0.36c0.31,0.09,0.61,0.09,0.92,0C84.22,8.21,84.22,8.11,84.22,7.98z M64.54,3.66
			c-0.31-0.1-0.6-0.09-0.92,0c0,0.13,0,0.23,0,0.36c0.31,0.1,0.6,0.09,0.92,0C64.54,3.9,64.54,3.79,64.54,3.66z M92.63,10.54
			c-0.26-0.63-0.72-0.44-1.17-0.43C91.72,10.73,92.18,10.54,92.63,10.54z M76.44,13.92c-0.14,0.11-0.15,0.25-0.06,0.43
			c0.28,0.09,0.57,0.09,0.87,0C77.1,13.93,76.8,13.87,76.44,13.92z M96.26,18.56c0.26-0.2,0.74,0.2,0.68-0.46
			c-0.24-0.13-0.46-0.14-0.68,0C96.26,18.19,96.26,18.3,96.26,18.56z M86.66,9.99c0.23,0.14,0.44,0.13,0.68,0c0-0.1,0-0.2,0-0.3
			c-0.23-0.14-0.44-0.13-0.68,0C86.66,9.78,86.66,9.89,86.66,9.99z M23.95,97.83c0.04-0.47,0.13-0.79-0.03-1.09
			c-0.19-0.05-0.34-0.05-0.4,0.19C23.62,97.16,23.75,97.42,23.95,97.83z M86.16,6.83c-0.24-0.18-0.48-0.18-0.72,0.01
			c0.02,0.12-0.05,0.25,0.15,0.36c0.14-0.09,0.39,0.13,0.57-0.12C86.16,7,86.16,6.92,86.16,6.83z M68.14,8.25
			c-0.23-0.13-0.45-0.13-0.68,0c0,0.1,0,0.2,0,0.3c0.23,0.13,0.45,0.13,0.68,0C68.14,8.45,68.14,8.35,68.14,8.25z M65.99,14.79
			c0.46,0.19,0.75,0.07,0.95-0.31C66.54,14.29,66.26,14.41,65.99,14.79z M115.59,31.93c0.19-0.46,0.07-0.75-0.31-0.95
			C115.09,31.38,115.21,31.66,115.59,31.93z M24.59,92.62c-0.19-0.39-0.32-0.66-0.5-1.01c-0.12,0.41-0.13,0.7-0.02,1.01
			C24.18,92.62,24.29,92.62,24.59,92.62z M73.67,14.14c0.01-0.25,0.04-0.41-0.17-0.46c-0.23,0.14-0.23,0.14-0.47,0.46
			C73.23,14.14,73.41,14.14,73.67,14.14z M85.65,8.15c-0.09,0.12-0.4,0.12-0.36,0.46c0.22,0.01,0.45,0.13,0.63-0.09
			C85.93,8.36,85.95,8.2,85.65,8.15z M29.63,37.47c0.15-0.22,0.43-0.3,0.37-0.63c-0.11-0.14-0.25-0.15-0.4-0.08
			C29.48,36.97,29.48,37.18,29.63,37.47z M22.56,84.54c-0.14-0.23-0.14-0.23-0.45-0.45c-0.01,0.22-0.13,0.45,0.09,0.63
			C22.36,84.73,22.52,84.75,22.56,84.54z M97.44,18.58c0.21,0.17,0.3,0.53,0.73,0.28C97.95,18.68,97.87,18.32,97.44,18.58z
			 M79.88,9.56c-0.3-0.18-0.6-0.29-1.07,0C79.29,9.56,79.58,9.56,79.88,9.56z M32.92,120.35c-0.26-0.11-0.31-0.54-0.79-0.23
			C32.39,120.23,32.44,120.66,32.92,120.35z M36.92,112.2c0.26,0.11,0.31,0.53,0.79,0.23C37.45,112.32,37.41,111.91,36.92,112.2z
			 M40.34,24.96c0.54,0.02,0.54-0.18,0.36-0.48c-0.13,0.02-0.26-0.04-0.36,0.12C40.34,24.66,40.34,24.77,40.34,24.96z M64.6,3.01
			c0.3,0.05,0.61,0.28,0.91-0.07C65.18,2.85,64.89,2.84,64.6,3.01z M61.16,4.43c-0.3-0.1-0.6-0.2-0.99,0.03
			C60.57,4.6,60.86,4.6,61.16,4.43z M113.4,27.12c0.17-0.16,0.18-0.32-0.01-0.48c-0.11,0.02-0.24-0.05-0.32,0.09
			c-0.07,0.15-0.05,0.28,0.09,0.39C113.24,27.12,113.32,27.12,113.4,27.12z M29.04,98.52c-0.16-0.17-0.32-0.17-0.48,0.01
			c0.02,0.11-0.05,0.24,0.14,0.35C28.93,98.93,29.08,98.84,29.04,98.52z M82.49,5.75c-0.16,0.03-0.29-0.04-0.38,0.1
			c-0.07,0.14-0.05,0.28,0.07,0.37C82.54,6.29,82.62,6.14,82.49,5.75z M75,7.68C74.83,7.84,74.82,8,75,8.16
			c0.11-0.02,0.24,0.05,0.35-0.14C75.41,7.79,75.32,7.64,75,7.68z M90.84,9.36c-0.17,0.16-0.18,0.32,0.01,0.48
			c0.11-0.02,0.24,0.05,0.32-0.09c0.07-0.15,0.05-0.28-0.09-0.39C91,9.36,90.92,9.36,90.84,9.36z M115.44,32.76
			c-0.16-0.17-0.32-0.18-0.48,0.01c0.02,0.11-0.05,0.24,0.09,0.32C115.35,33.19,115.47,33.07,115.44,32.76z M83.51,15.19
			c0.03,0.16-0.04,0.29,0.11,0.38c0.13,0.06,0.27,0.05,0.37-0.07C84.05,15.14,83.9,15.06,83.51,15.19z M94.8,16.92
			c0.16,0.17,0.32,0.18,0.48-0.01c-0.02-0.11,0.05-0.24-0.1-0.32c-0.14-0.06-0.28-0.05-0.39,0.09C94.8,16.76,94.8,16.84,94.8,16.92z
			 M95.05,17.69c-0.03-0.16,0.04-0.29-0.11-0.38c-0.13-0.06-0.27-0.05-0.37,0.07C94.51,17.74,94.66,17.82,95.05,17.69z M118.8,33.96
			c-0.16-0.17-0.32-0.18-0.48,0.01c0.02,0.11-0.05,0.24,0.1,0.32c0.14,0.06,0.28,0.05,0.39-0.09
			C118.8,34.12,118.8,34.04,118.8,33.96z M25.08,94.8c0.17-0.16,0.17-0.32-0.01-0.48c-0.11,0.02-0.24-0.05-0.35,0.14
			C24.67,94.69,24.76,94.84,25.08,94.8z M22.92,95.52c0.17-0.16,0.18-0.32-0.01-0.48c-0.11,0.02-0.24-0.05-0.32,0.1
			c-0.06,0.14-0.05,0.28,0.09,0.39C22.76,95.52,22.84,95.52,22.92,95.52z M67.15,4.04c-0.21-0.09-0.45-0.34-0.72,0
			C66.73,4.04,66.94,4.04,67.15,4.04z M21.05,55.39c0-0.21,0.15-0.45-0.07-0.69C20.84,54.98,20.83,55.19,21.05,55.39z M69.12,5.88
			c-0.16-0.17-0.32-0.17-0.48,0C68.8,6.05,68.96,6.05,69.12,5.88z M73.87,9.19c-0.12,0.06-0.32-0.24-0.39,0.09
			C73.62,9.4,73.75,9.41,73.87,9.19z M91.01,16.25c0.12-0.06,0.32,0.24,0.39-0.09C91.26,16.04,91.13,16.03,91.01,16.25z
			 M101.64,18.72c0.17-0.16,0.17-0.32,0-0.48C101.47,18.4,101.47,18.56,101.64,18.72z M32.77,33.62c0.15-0.22,0.22-0.38-0.04-0.47
			C32.6,33.3,32.59,33.43,32.77,33.62z M43.31,23.75c-0.15,0.21-0.22,0.36,0.07,0.47C43.45,24.07,43.5,23.94,43.31,23.75z
			 M44.21,115.36c0.12-0.05,0.31,0.24,0.4-0.08C44.47,115.15,44.34,115.16,44.21,115.36z M90.36,9.12c-0.11,0.08-0.11,0.16,0,0.24
			C90.47,9.28,90.47,9.2,90.36,9.12z M116.16,32.76c0.08,0.11,0.16,0.11,0.24,0C116.32,32.65,116.24,32.65,116.16,32.76z
			 M28.08,40.68c0.08,0.11,0.16,0.11,0.24,0C28.24,40.57,28.16,40.57,28.08,40.68z"/>
		<path class="st0" d="M119.76,23.52c0.4,0.24,0.78,0.41,1.08,0.88c0.29,0.45,0.78,0.83,1.08,1.21c-0.01,0.43-0.34,0.22-0.44,0.4
			c0.03,0.05,0.05,0.12,0.09,0.16c0.27,0.28,0.6,0.41,0.99,0.49c0.48,0.1,0.47,0.14,0.56,0.83c0.2,0.17,0.52,0.16,0.66,0.42
			c0.31,0.59,0.8,1.03,1.25,1.51c0.06,0.06,0.01,0.23,0.01,0.35c-0.14,0-0.28,0-0.48,0c0,0.2,0,0.34,0,0.48c-0.12,0-0.24,0-0.25,0
			c-0.87-0.89-1.47-1.87-1.95-2.87c-0.44-0.04-0.57,0.2-0.67,0.41c-0.08,0.28,0.28,0.31,0.22,0.54c-0.31,0.04-0.63-0.08-0.97,0.08
			c0.1,1.16,0.81,2.27,0.32,3.47c0.26,0.07,0.08,0.37,0.25,0.49c0.16,0.06,0.3,0.06,0.39-0.1c0.24-0.25-0.38-0.31-0.13-0.57
			c0.33-0.09,0.52,0.35,0.85,0.23c0,0.36,0,0.72,0,1.11c0.75,0.4,0.78,1.37,1.43,1.88c0,0.23,0,0.47,0,0.74
			c0.29,0.13,0.58,0.27,0.9,0.41c0.24,0.55,0.21,1.22,0.58,1.83c0.38,0.04,0.83-0.04,1.17,0.26c0.04,0.18-0.12,0.46,0.24,0.48
			c0,0.2,0,0.39,0,0.59c0.67,0.42,0.98,1.03,0.96,1.81c-0.15-0.03-0.22,0.06-0.24,0.18c-0.02,0.16,0.01,0.32,0.24,0.29
			c-0.08,0.41,0.27,0.61,0.36,1.06c0.23-0.6,0.08-0.89-0.36-1.06c0-0.15,0-0.31,0-0.47c0.12,0,0.24,0,0.35,0
			c0.18-0.09,0.08-0.29,0.18-0.41c0.03-0.02,0.06-0.04,0.09-0.06c-0.09,0.48,0.66,0.35,0.59,0.81c-0.09,0.18-0.28,0.11-0.41,0.18
			c-0.15,0.26-0.05,0.54-0.07,0.85c0.56,0.21,0.39,0.86,0.71,1.23c-0.34,0.79-0.29,1.24,0.43,1.77c0.57,0.42,0.85,0.89,0.76,1.52
			c0.2,0.2,0.34,0.34,0.49,0.49c-0.03,0.77-0.07,1.54,0.39,2.26c0.05,0.01,0.16,0.03,0.26,0.05c0.38,1.19,0.33,2.48,0.94,3.59
			c0.24,0.44-0.1,0.95,0.17,1.37c0.27,0.42,0.15,0.75-0.06,1.17c-0.21,0.42,0.41,0.83,0.21,1.33c0.5,1.01,0.46,2.19,0.96,3.2
			c0.03,0.06,0.03,0.18,0,0.24c-0.26,0.46-0.26,0.87-0.03,1.38c0.18,0.38-0.07,0.92,0.27,1.33c0.04,0.05,0.02,0.16,0,0.24
			c-0.16,0.99,0.33,1.91,0.26,2.9c-0.07,0.99-0.03,2-0.01,3c0.01,0.41-0.19,0.87,0.22,1.23c0.06,0.05,0.06,0.27,0,0.34
			c-0.37,0.42-0.15,0.97-0.27,1.42c-0.15,0.01-0.22,0.02-0.4,0.03c0.07-0.85-0.32-1.62-0.3-2.48c0.01-0.33,0.07-0.6,0.25-0.86
			c0.04-0.06,0.01-0.16,0.01-0.24c0-0.12,0.05-0.29-0.01-0.35c-0.56-0.63,0.07-1.48-0.4-2.12c-0.11-0.15-0.04-0.3-0.07-0.44
			c0.01-0.36,0.52-0.39,0.48-0.79c0.01-0.33-0.37-0.06-0.45-0.26c-0.16-2.09-0.56-4.14-0.95-6.29c0.03-0.04,0.11-0.16,0.2-0.28
			c-0.06-0.62-0.85-1.15-0.25-1.88c-0.22-0.21-0.45-0.43-0.7-0.67c-0.05-0.47-0.08-0.95-0.22-1.44c-0.49-1.68-0.96-3.35-1.58-4.99
			c-0.45-1.17-0.9-2.35-1.34-3.52c-0.35-0.93-0.82-1.83-1.33-2.68c-0.27-0.46-0.19-1.06-0.66-1.41c-0.31,0.13-0.05,0.41-0.17,0.59
			c-0.06,0.1-0.1,0.1-0.17,0.03c-0.61-0.61-1.05-1.31-1.01-2.24c0.14-0.05,0.28-0.1,0.49-0.17c-0.79-0.7-0.78-1.89-1.68-2.39
			c-0.01-0.26-0.02-0.41-0.03-0.56c-1.07-0.84-1.59-2.08-2.36-3.12c-1.02-1.37-1.77-2.93-3-4.15c-0.19-0.19-0.36-0.29-0.62-0.25
			c-0.02-0.36-0.3-0.2-0.48-0.24c0-0.28,0-0.56,0-0.85c-0.34-0.24-0.54-0.66-0.96-0.83c-0.22-0.47-0.42-0.97-0.85-1.17
			c-0.36-0.1-0.47,0.5-0.79,0.13c-0.21-0.32,0.3-0.43,0.18-0.78c-0.17-0.1-0.28-0.33-0.6-0.38c-0.34-0.05-0.28-0.51-0.5-0.72
			c-0.06-0.05-0.1-0.13-0.17-0.16c-0.82-0.35-1.29-1.06-1.83-1.71c0.14-0.03,0.31,0.06,0.46-0.1c0-0.16,0-0.34,0-0.54
			c-0.34,0.09-0.48-0.48-0.94-0.26c0,0.21,0,0.43,0,0.65c-0.95-0.77-1.9-1.55-2.88-2.35c0-0.05,0-0.17,0-0.29
			c0.14-0.03,0.31,0.07,0.44-0.07c-0.29-0.35-0.29-0.35-0.68-0.41c0.01-0.17-0.07-0.25-0.24-0.24c-0.09-0.38-0.35-0.52-0.72-0.48
			c0.01-0.17-0.07-0.25-0.24-0.24c0.02-0.12-0.03-0.19-0.14-0.21c-0.02,0-0.07,0.05-0.07,0.07c0.02,0.11,0.1,0.16,0.21,0.14
			c-0.01,0.17,0.07,0.25,0.24,0.24c0,0.08,0,0.16,0,0.24c-0.7-0.14-1.18-0.76-1.91-0.84c-0.06-0.01-0.12-0.1-0.17-0.16
			c-0.04-0.06-0.06-0.13-0.08-0.2c-0.03-0.19,0.18-0.23,0.22-0.37c-0.16-0.1-0.22-0.33-0.45-0.34c-0.24-0.08-0.26,0.31-0.53,0.23
			c-0.36-0.36-0.84-0.2-1.2-0.23c-0.44-0.23-0.8-0.41-1.21-0.62c0.23-0.34-0.15-0.53-0.2-0.82c0.28-0.04,0.52,0.06,0.6,0.21
			c0.35,0.08,0.37-0.29,0.77-0.16c0.16,0.1,0.1,0.57,0.44,0.65c0.41,0.19,0.63-0.28,1.14-0.2c0.61,0.43,1.54,0.58,2.12,1.34
			c0.12,0.16,0.29,0.05,0.44,0.08c-0.01,0.17,0.07,0.25,0.24,0.24c0.05,0.23,0.19,0.36,0.4,0.44c0.15-0.14,0.06-0.3,0.08-0.44
			c0.15-0.03,0.32,0.08,0.45-0.08c-0.13-0.36-0.7-1.05-0.99-1.11c-0.69-0.14-1.23-0.57-1.74-1c-0.59-0.49-1.22-0.87-1.91-1.18
			c-0.37-0.17-0.67-0.49-1.03-0.7c-0.81-0.46-1.62-0.92-2.45-1.32c-0.83-0.4-1.59-0.97-2.53-1.13c-0.13-0.02-0.35-0.2-0.34-0.44
			c0.2,0.04,0.24-0.18,0.41-0.25c0.84,0.39,1.68,0.89,2.59,1.18c0.93,0.3,1.59,1.14,2.69,1.29c0.4,0.56,1.13,0.8,1.79,1.16
			c0.36,0.19,0.96,0.21,0.92,0.86c1.51,0.53,2.71,1.57,4.06,2.35c0.5,1.22,1.96,1.14,2.75,2c0.12,0.13,0.45,0.05,0.76,0.07
			c0.64,0.62,1.27,1.34,2.01,1.8c0.06,0.47-0.73,0.2-0.4,0.77c0.39,0,0.82,0,1.17,0c0.41,0.29,0.6,0.72,1.07,0.82
			c0.13,0.03,0.23,0.31,0.35,0.43c0.5,0.5,0.62,1.31,1.41,1.58c0.24,0.08,0.46,0.36,0.54,0.72c0.05,0.24,0.34,0.43,0.67,0.34
			c0.02,0.36,0.3,0.2,0.48,0.24c-0.01,0.17,0.07,0.25,0.24,0.24c-0.02,0.12,0.03,0.19,0.14,0.21c0.02,0,0.07-0.05,0.07-0.07
			c-0.02-0.11-0.1-0.16-0.21-0.14c0.01-0.17-0.07-0.25-0.24-0.24c-0.02-0.36-0.3-0.2-0.48-0.24c0-0.19,0-0.39,0-0.64
			c-0.23-0.2-0.48-0.43-0.73-0.64c0.11-0.24,0.4-0.06,0.47-0.32c-0.12-0.04-0.26-0.09-0.47-0.15
			C119.76,23.97,119.76,23.74,119.76,23.52z M113.04,21.84c0.02-0.12-0.03-0.19-0.14-0.21c-0.02,0-0.07,0.05-0.07,0.07
			C112.85,21.81,112.92,21.86,113.04,21.84c-0.01,0.17,0.07,0.25,0.24,0.24c-0.02,0.12,0.03,0.19,0.14,0.21
			c0.02,0,0.07-0.05,0.07-0.07c-0.02-0.11-0.1-0.16-0.21-0.14C113.29,21.91,113.21,21.83,113.04,21.84z M116.16,24.72
			c0.02-0.12-0.03-0.19-0.14-0.21c-0.02,0-0.07,0.05-0.07,0.07C115.97,24.69,116.04,24.74,116.16,24.72c0,0.08,0,0.16,0,0.24
			c-0.16,0-0.32,0-0.48,0c0.02-0.12-0.03-0.19-0.14-0.21c-0.02,0-0.07,0.05-0.07,0.07c0.02,0.11,0.1,0.16,0.21,0.14
			c0,0.3,0,0.61,0,0.85c0.26,0.23,0.41,0.54,0.75,0.2c-0.08-0.34-0.37-0.65-0.27-1.05c0.07-0.03,0.18-0.04,0.19-0.08
			C116.38,24.74,116.28,24.71,116.16,24.72z M115.44,24c-0.02,0.12,0.03,0.19,0.14,0.21c0.02,0,0.07-0.05,0.07-0.07
			c-0.02-0.11-0.1-0.16-0.68-0.28c0.05,0.05,0.12,0.14,0.13,0.13c0.11-0.06,0.37,0.14,0.32-0.1C115.38,23.7,115.14,23.71,115.44,24z
			 M112.08,19.92c0.01-0.17-0.07-0.25-0.24-0.24c-0.5-0.58-1.01-0.15-1.55,0.01c-0.17-0.13-0.34-0.49-0.62-0.1
			c-0.02,0.34,0.21,0.46,0.51,0.59c0.32-0.36,0.76-0.25,1.17-0.26c-0.01,0.17,0.07,0.25,0.24,0.24c0.05,0.23,0.19,0.36,0.4,0.44
			c0.15-0.14,0.06-0.3,0.08-0.44c0.15-0.05,0.38,0.13,0.45-0.15C112.39,19.85,112.23,19.95,112.08,19.92z M120.24,27.36
			c0.01-0.17-0.07-0.25-0.24-0.24c-0.04-0.25,0.04-0.45,0.23-0.61c-0.21-0.15-0.57-0.16-0.65-0.42c-0.27-0.87-1.16-1.01-1.71-1.53
			c-0.28-0.33-0.21-0.89-0.75-1.04c0.02-0.12-0.03-0.19-0.14-0.21c-0.02,0-0.07,0.05-0.07,0.07c0.02,0.11,0.1,0.16,0.21,0.14
			c0.11,0.31-0.21,0.47-0.25,0.8c0.32,0.34,0.38,0.95,0.94,1.12c0.23,0,0.42,0,0.62,0c0.03,0,0.06,0.05,0.12,0.11
			c0,0.27-0.01,0.59,0,0.9c0.01,0.12,0.09,0.21,0.24,0.19c-0.05,0.33,0.09,0.56,0.4,0.68c0.15-0.13,0.05-0.3,0.08-0.44
			c0.31-0.12,0.46,0.21,0.72,0.24c-0.01,0.17,0.07,0.25,0.2,0.25c0.18,0.26,0.28,0.58,0.75,0.41
			C120.79,27.47,120.58,27.31,120.24,27.36z M117.36,26.64c0.02-0.12-0.03-0.19-0.14-0.21c-0.02,0-0.07,0.05-0.07,0.07
			c0.02,0.11,0.1,0.16,0.26,0.14c0.01,0.24-0.19,0.53,0.08,0.72c0.16,0.01,0.32,0.02,0.36-0.31
			C117.87,26.89,117.6,26.81,117.36,26.64z M110.16,18.96c-0.02,0.12,0.03,0.19,0.14,0.21c0.02,0,0.07-0.05,0.07-0.07
			C110.35,18.99,110.28,18.94,110.16,18.96c-0.19-0.71-0.19-0.71-0.74-0.56C109.53,18.78,109.73,19.02,110.16,18.96z M109.08,17.76
			c-0.11,0.08-0.11,0.16,0,0.24C109.19,17.92,109.19,17.84,109.08,17.76z M112.92,22.8c-0.11,0.08-0.11,0.16,0,0.24
			C113.03,22.96,113.03,22.88,112.92,22.8z M108.72,18.36c-0.08-0.11-0.16-0.11-0.24,0C108.56,18.47,108.64,18.47,108.72,18.36z"/>
		<path class="st0" d="M55.2,122.16c0.52,0,1.04,0,1.56,0c0.5,0.54,1.24,0.53,1.87,0.69c1.01,0.25,2,0.6,3.01,0.85
			c0.13,0.03,0.25,0.16,0.42,0.15c1.32-0.08,2.56,0.5,3.87,0.48c0.85,0.44,1.81,0.03,2.64,0.28c0.82,0.24,1.62,0.14,2.43,0.2
			c0.12,0.01,0.22-0.01,0.29-0.24c-0.9,0.08-1.76-0.11-2.6-0.32c-0.05-0.11-0.07-0.22,0.07-0.41c0.61,0.13,1.32-0.25,1.96,0.24
			c0.05,0.04,0.18,0.04,0.23,0c0.74-0.52,1.46,0.12,2.2,0.03c0.79-0.1,1.59-0.02,2.39-0.02c0.62,0,1.24,0.08,1.82-0.23
			c0.15-0.08,0.38-0.01,0.6-0.01c0.02,0.24,0.04,0.43,0.05,0.62c0.26,0.21,0.31-0.39,0.58-0.14c0.14,0.11,0.16,0.25,0.03,0.49
			c-0.63-0.06-1.32,0.16-1.94-0.3c-0.07,0.14-0.1,0.21-0.13,0.27s-0.05,0.14-0.09,0.25c-0.75-0.14-1.44-0.67-2.27-0.42
			c-0.04,0.36,0.36,0.03,0.41,0.27c0,0.11,0,0.22,0,0.4c-1.93,0-3.83,0-5.74,0c0-0.33-0.25-0.23-0.43-0.24
			c-0.42-0.03-0.86,0.11-1.21-0.24c-0.19-0.04-0.27,0.13-0.38,0.22c-0.24,0.1-0.36-0.08-0.48-0.2c-0.52-0.09-1.1,0.18-1.52-0.12
			c-0.45-0.32-1.05,0.15-1.41-0.38c-0.01-0.02-0.08-0.01-0.12,0c-0.86,0.11-1.63-0.24-2.44-0.45c-0.79-0.21-1.58-0.42-2.37-0.64
			c-0.61-0.17-1.26-0.23-1.89-0.35c-0.29-0.38-0.76-0.32-1.14-0.47C55.35,122.35,55.18,122.39,55.2,122.16z"/>
		<path class="st0" d="M96.72,12.48c0.2,0,0.4,0,0.61,0c0.07-0.16,0.15-0.32,0.22-0.48c0.43-0.07,0.52,0.46,0.88,0.49
			c0.35-0.01,0.08-0.47,0.43-0.5c0.36,0.17,0.75,0.38,1.16,0.53c0.42,0.15,0.52,0.68,0.99,0.75c0.02,0.18,0.04,0.37,0.06,0.57
			c0.44,0.11,0.71,0.41,0.91,0.71c0.1,0.3-0.26,0.33-0.21,0.61c0.06,0.12,0.15,0.28,0.23,0.44c-0.53,0.04-0.75-0.33-0.96-0.72
			c0.15-0.03,0.32,0.07,0.46-0.1c0-0.09,0-0.19,0-0.29c-0.23-0.16-0.47-0.06-0.7-0.09c0.02-0.12-0.03-0.19-0.14-0.21
			c-0.02,0-0.07,0.05-0.07,0.07c0.02,0.11,0.1,0.16,0.21,0.14c0.08,0.16,0.16,0.32,0.24,0.48c-0.23,0.03-0.47-0.07-0.68,0.08
			c-0.06,0.16,0.24,0.17,0.1,0.4c-0.34,0.06-0.54-0.33-0.87-0.35c0-0.17,0-0.33,0-0.49c-0.12-0.12-0.23-0.23-0.38-0.38
			c-0.31,0-0.65,0-1,0c-0.02-0.34-0.21-0.52-0.44-0.71c-0.51,0.13-0.91-0.12-1.23-0.31C96.4,12.74,96.78,12.71,96.72,12.48z
			 M99.51,13.57c0.05-0.58,0.05-0.58-0.25-0.52C99.3,13.14,99.38,13.3,99.51,13.57z"/>
		<path class="st0" d="M125.04,29.76c1.01,0.97,1.93,2,2.26,3.51c0.31,0.04,0.53,0.37,0.87,0.69c-0.29,0.71,0.59,1.22,0.47,1.94
			c-0.34,0.24-0.54,0-0.61-0.18c-0.36-0.97-1.1-1.7-1.64-2.55c-0.22-0.35-0.43-0.7-0.63-1.06c-0.21-0.4-0.4-0.84-0.79-1.11
			c-0.2-0.14-0.17-0.34-0.17-0.53C125.26,30.37,124.95,30,125.04,29.76z"/>
		<path class="st0" d="M90.57,122.22c-0.05-0.18-0.07-0.26-0.11-0.38c0.81-0.57,1.8-0.76,2.71-1.1c1.42-0.54,2.88-0.95,4.13-1.88
			c0.51-0.38,1.21-0.53,1.83-0.76c0.12-0.05,0.32-0.07,0.44,0.1c-0.07,0.08-0.14,0.16-0.21,0.25c0.07,0.17,0.26,0.09,0.48,0.22
			c-0.51,0.16-0.76,0.57-1.11,0.86c-0.16,0-0.32,0-0.51,0c-0.05-0.14-0.1-0.27-0.16-0.46C95.74,120.43,93.1,121.08,90.57,122.22z"/>
		<path class="st0" d="M130.32,79.91c0-0.74-0.19-1.56,0.06-2.21c0.23-0.6-0.08-1.39,0.61-1.84c0.03,0.23,0.07,0.46,0.1,0.7
			c0.09-0.07,0.18-0.11,0.18-0.15c0-0.54,0.1-1.09-0.23-1.57c0-1.42,0-2.84,0-4.26c0.12,0.74,0.73,1.38,0.28,2.24
			c-0.24,0.46-0.04,1.16-0.04,1.76c0.37,0.05,0.14-0.29,0.35-0.37c0.27,0.32,0.39,0.71,0.42,1.11c0.15,0.04,0.26,0.07,0.4,0.1
			c0,0.18,0,0.36,0,0.58c-0.24,0.25-0.39,0.01-0.63-0.22c-0.03,0.52-0.05,0.97-0.08,1.42c-0.12,0.11-0.23,0.22-0.34,0.32
			c-0.23-0.18-0.03-0.46-0.09-0.56c-0.14-0.15-0.21-0.14-0.25-0.04c-0.18,0.38-0.3,0.77-0.26,1.21c0.06,0.63-0.46,1.15-0.17,1.83
			C130.52,79.94,130.42,79.93,130.32,79.91z"/>
		<path class="st0" d="M119.52,23.28c-0.12,0-0.24,0-0.35,0c-0.18,0.09-0.09,0.28-0.11,0.32c-0.18-0.18-0.38-0.38-0.58-0.58
			c-0.05,0.05-0.1,0.1-0.15,0.15c0-0.16,0-0.32,0-0.48c-0.06-0.04-0.12-0.12-0.18-0.12c-0.42-0.01-0.51-0.61-1.03-0.51
			c0.12-0.59-0.27-0.87-0.57-1.13c-0.63-0.17-1.3-0.15-1.35-1c0.61,0,1.09,0.47,1.7,0.49c0.09,0,0.25,0.1,0.27,0.18
			c0.21,0.74,0.94,0.95,1.43,1.41C119,22.37,119.33,22.77,119.52,23.28z"/>
		<path class="st0" d="M74.89,125.48c-0.02,0.27-0.02,0.34-0.03,0.42c-0.07,0.03-0.13,0.1-0.2,0.1c-0.68,0.01-1.35,0.02-2.03,0
			c-0.58-0.01-1.08,0.33-1.69,0.27c-0.55-0.06-1.06-0.09-1.51-0.54c-0.71,0-1.45,0-2.22,0c0-0.15,0-0.25,0-0.44
			c0.4,0,0.8,0.04,1.18-0.01c0.43-0.06,0.7,0.34,1.15,0.27c0.35-0.05,0.78-0.17,1.11,0.18c0.08,0.08,0.32,0.09,0.45,0.03
			C72.33,125.21,73.58,125.7,74.89,125.48z"/>
		<path class="st0" d="M53.28,121.44c-0.7-0.06-1-0.21-1.28-0.7c-0.4,0-0.83,0-1.12,0c-1.33-0.69-2.53-1.34-3.76-1.93
			c-0.26-0.13-0.47-0.22-0.56-0.5c0.26,0.04,0.5,0,0.77,0.15c1.16,0.63,2.36,1.19,3.55,1.78c0.28,0.04,0.34-0.58,0.78-0.18
			c0.2,0.34,0.86,0.29,0.97,0.87c0.18,0.02,0.37,0.04,0.55,0.06C53.35,121.12,53.25,121.29,53.28,121.44z"/>
		<path class="st0" d="M128.4,84.96c0.12,0,0.24,0,0.36,0c0.34-0.59,0.41-1.27,0.56-1.9c0.16-0.66,0.38-1.27,0.64-2.01
			c0.32,0.85,0,1.57-0.25,2.2c-0.25,0.63-0.41,1.21-0.31,1.86c0.08,0.14,0.21,0.08,0.33,0.09c0.29,0.26,0.02,0.59,0.15,0.87
			c-0.41,0.1-0.18-0.25-0.3-0.3c-0.2-0.15-0.4-0.06-0.6-0.08c-0.19,0.35-0.02,0.76-0.12,1.15c-0.13,0.02-0.24,0.03-0.35,0.04
			c-0.21-0.33-0.17-0.6,0.13-0.83C128.23,85.75,128.46,85.33,128.4,84.96z"/>
		<path class="st0" d="M38.16,124.09c0,0.11,0,0.23,0,0.35c0.21,0.2,0.59,0.16,0.71,0.57c-0.63,0.18-1.18-0.44-1.82-0.15
			c-0.18-0.59-0.81-0.41-1.12-0.73c-0.3-0.31-0.8-0.34-1-0.79c-0.35,0-0.7,0-1.02,0c-0.23-0.42,0.2-0.47,0.27-0.71
			c0.74,0.2,1.25,0.76,1.92,0.97C36.77,123.79,37.43,124.09,38.16,124.09z"/>
		<path class="st0" d="M77.77,127.16c-0.82,0.11-1.55-0.05-2.27,0.25c-0.39,0.16-0.93,0.14-1.33-0.21
			c-0.81,0.47-1.69,0.12-2.52,0.25c-0.13-0.13-0.24-0.24-0.36-0.36c0.05-0.05,0.09-0.13,0.14-0.13c0.28-0.01,0.56,0,0.84-0.01
			c1.37-0.06,2.74,0.15,4.1-0.22c0.4-0.11,0.86-0.02,1.23-0.02C77.81,126.84,77.74,126.97,77.77,127.16z"/>
		<path class="st0" d="M105.12,118.32c-0.08-0.44-0.51-0.29-0.6-0.2c-0.26,0.27-0.56,0.17-0.84,0.2c0.33-0.62,0.85-0.92,1.56-0.97
			c0.24-0.74,0.83-0.96,1.56-0.95c-0.04,0.26-0.22,0.43-0.45,0.47c-0.33,0.06-0.39,0.32-0.53,0.45c0.09,0.39,0.33,0.25,0.5,0.28
			c-0.21,0.26-0.25,0.58-0.29,0.99C105.76,118.25,105.43,118.33,105.12,118.32z"/>
		<path class="st0" d="M46.8,115.68c0.23,0,0.46,0,0.63,0c0.18,0.31,0.02,0.44-0.15,0.59c1.21,0.61,2.41,1.22,3.69,1.88
			c-0.34,0.2-0.54,0.22-0.8,0.08c-1-0.54-2-1.1-3.04-1.56c-0.39-0.17-0.63-0.4-0.81-0.74C46.5,115.88,46.78,116.04,46.8,115.68z"/>
		<path class="st0" d="M130.08,77.26c-0.18,0-0.29,0-0.48,0c0.04-1.35-0.15-2.7,0.35-4.03c0.08,0,0.18,0,0.41,0
			c-0.17,0.68,0.09,1.32-0.23,2.04C129.88,75.82,130.08,76.57,130.08,77.26z"/>
		<path class="st0" d="M92.43,124.7c-0.34,0.18-0.73-0.02-0.92,0.39c-0.37-0.2-0.8-0.49-1.18-0.22c-0.42,0.3-0.82,0.08-1.24,0.2
			c0.07-0.68,0.67-0.41,0.97-0.65c0.27-0.22,0.76-0.16,1.03-0.38c0.42-0.34,0.83-0.08,1.23-0.22c-0.02,0.66-0.55,0.42-0.91,0.61
			C91.72,124.69,92.11,124.43,92.43,124.7z"/>
		<path class="st0" d="M124.08,31.2c-0.44-0.02-0.9,0.11-1.2-0.27c-0.33,0.12-0.21,0.34-0.24,0.51c-0.31-0.12-0.35-0.56-0.72-0.64
			c-0.02,0,0-0.21,0-0.32c0.3,0,0.6,0,0.96,0c0-0.36,0-0.66,0-0.96C123.55,29.89,123.87,30.5,124.08,31.2z"/>
		<path class="st0" d="M128.42,84.96c-0.21-0.04-0.25,0.17-0.39,0.22c-0.04-0.06-0.1-0.13-0.1-0.19c0-0.41,0.07-0.8,0.2-1.21
			c0.25-0.77,0.53-1.54,0.55-2.39c0.14-0.01,0.25-0.02,0.39-0.03c0.21,0.67-0.16,1.26-0.28,1.86
			C128.67,83.8,128.3,84.33,128.42,84.96z"/>
		<path class="st0" d="M115.92,107.76c0-0.19-0.04-0.39,0.16-0.52c0.16-0.11,0.05-0.29,0.08-0.44c0.12,0.02,0.19-0.03,0.21-0.14
			c0-0.02-0.05-0.07-0.07-0.07c-0.11,0.02-0.16,0.1-0.14,0.21c-0.3,0-0.6,0-0.86,0c0.29-0.29,0.57-0.58,0.95-0.96c0,0,0.2,0,0.39,0
			c0.14,0.53,0.37,1.04,0.19,1.61C116.51,107.5,116.29,107.84,115.92,107.76z"/>
		<path class="st0" d="M132.96,78.07c0.2-0.08,0.3-0.1,0.48,0.05c0.02,1.26-0.3,2.51-0.78,3.83c-0.48-0.78,0.02-1.39,0.09-2.01
			C132.83,79.31,133,78.68,132.96,78.07z"/>
		<path class="st0" d="M113.01,111.89c-0.46-0.09-0.75-0.39-1.39-0.23c0.82-0.69,1.57-1.04,2.06-1.74c0.12-0.04,0.24,0.03,0.37,0.15
			c0.11,0.09,0.26,0.12,0.65,0.28c-0.24,0.11-0.37,0.22-0.51,0.23C113.35,110.59,113.14,111.17,113.01,111.89z"/>
		<path class="st0" d="M130.56,66.72c0.12,0,0.24,0,0.36,0c0.21-0.09,0.02-0.39,0.31-0.49c0.08,1.11,0.5,2.18,0.23,3.34
			c-0.11,0.01-0.22,0.01-0.37,0.02c0-0.68,0-1.35,0-1.9c-0.12-0.29-0.31-0.22-0.44-0.29C130.48,67.19,130.59,66.95,130.56,66.72z"/>
		<path class="st0" d="M102.24,119.76c-0.44-0.12-0.78,0.28-1.2,0.24c0-0.12,0-0.24,0-0.35c0.14-0.21,0.36-0.09,0.64-0.17
			c0.54-0.47,1.01-1.27,2-1.16c0.12,0.31-0.21,0.46-0.24,0.72c-0.37-0.04-0.63,0.1-0.72,0.48
			C102.54,119.56,102.26,119.4,102.24,119.76z"/>
		<path class="st0" d="M91,7.13c0.41,0.39,0.68,0.78,1.19,0.93c-0.17,0.06-0.31,0.11-0.45,0.16c-0.11,0.18,0.19,0.18,0.14,0.35
			c-0.19,0.17-0.32,0.03-0.49-0.09c-0.15-0.1-0.37-0.08-0.45-0.09c-0.35-0.31-0.65-0.57-0.96-0.84C90.32,7.39,90.71,7.47,91,7.13z"
			/>
		<path class="st0" d="M73.7,123.35c0-0.17,0-0.28,0-0.47c0.64,0,1.26-0.05,1.88,0.02c0.58,0.07,1.06-0.52,1.68-0.17
			c0,0.09,0,0.2,0,0.41C76.06,122.91,74.92,123.46,73.7,123.35z"/>
		<path class="st0" d="M113.04,111.84c0.31,0,0.62,0,1.08,0c-0.49,0.78-0.94,1.37-1.68,1.68c-0.03,0.01-0.08,0-0.12,0
			c0-0.19-0.03-0.37,0.15-0.52C112.82,112.7,113.03,112.31,113.04,111.84z"/>
		<path class="st0" d="M118.08,29.52c0.03,0.15-0.06,0.31,0.08,0.44c0.28,0.27,0.56,0.55,0.83,0.83c0.05,0.22,0.13,0.44-0.06,0.64
			c-0.52-0.53-1.04-1.05-1.57-1.58c0-0.18,0-0.37,0-0.57c0.08,0,0.16,0,0.24,0C117.62,29.64,117.9,29.48,118.08,29.52z"/>
		<path class="st0" d="M116.88,105.6c0-0.12,0-0.24,0-0.36c0.11-0.12,0.11-0.12,0.97-0.12c0.06-0.08,0.19-0.28,0.34-0.46
			c0.15-0.18,0.31-0.35,0.46-0.53c0.22,0.23,0.18,0.39,0.01,0.54c-0.19,0.16-0.03,0.38-0.15,0.61c-0.25,0.23-0.72,0.22-1,0.54
			c-0.27-0.04-0.04-0.37-0.25-0.44C117.11,105.42,117.07,105.64,116.88,105.6z"/>
		<path class="st0" d="M97.81,10.79c-1.01,0.06-1.63-0.46-2.29-0.83c-0.03-0.37,0.2-0.43,0.37-0.35
			C96.53,9.94,97.19,10.25,97.81,10.79z"/>
		<path class="st0" d="M101.06,119.98c-0.41,0.88-1.32,0.89-2,1.24c-0.2-0.11-0.24-0.36-0.15-0.39
			C99.63,120.56,100.2,119.94,101.06,119.98z"/>
		<path class="st0" d="M127.86,91.71c-0.2-0.04-0.27-0.05-0.44-0.09c0.28-0.83,0.49-1.67,1.19-2.45
			C128.64,90.17,128.02,90.84,127.86,91.71z"/>
		<path class="st0" d="M130.52,66.72c-0.16,0-0.23,0-0.4,0c-0.01-0.42-0.05-0.84-0.03-1.27c0.03-0.38-0.52-0.65-0.14-1.1
			c0.06-0.01,0.17-0.01,0.39-0.03C130.12,65.17,130.78,65.88,130.52,66.72z"/>
		<path class="st0" d="M95.04,11.76c0.23,0,0.46,0.01,0.68,0c0.38-0.02,0.65,0.09,0.76,0.48c-0.15,0.03-0.31-0.07-0.4,0.03
			c0.05,0.25,0.08,0.47,0.14,0.77C95.47,12.8,95.29,12.25,95.04,11.76z"/>
		<path class="st0" d="M55.75,119.33c-0.57-0.53-1.32-0.73-2-1.12c0.77-0.13,1.41,0.17,2.02,0.58
			C55.97,118.91,55.99,119.1,55.75,119.33z"/>
		<path class="st0" d="M55.4,123.88c0.01,0.53,0.4,0.62,0.79,0.8c-0.65,0.35-1.14-0.16-1.69-0.18c0-0.22,0-0.4,0-0.62
			C54.79,123.88,55.05,123.88,55.4,123.88z"/>
		<path class="st0" d="M88.81,6.76c0.38,0,0.77,0,1.17,0c0,0.14,0,0.25,0,0.32c-0.09,0.23-0.34,0.01-0.42,0.25
			c0.04,0.05,0.11,0.13,0.18,0.22c-0.14,0.29-0.39,0.07-0.59,0.12c-0.19-0.2-0.06-0.71-0.61-0.46C88.62,6.95,88.84,6.91,88.81,6.76z
			"/>
		<path class="st0" d="M131.8,68.48c0.2-0.17,0.31-0.44,0.6-0.27c0.37,0.36-0.32,0.46-0.18,0.82c0.08,0.22,0.1,0.53-0.06,0.8
			c-0.1,0-0.21,0-0.36,0C131.8,69.38,131.8,68.96,131.8,68.48z"/>
		<path class="st0" d="M98.4,122.64c-0.11-0.46-0.48-0.15-0.72-0.24c0.04-0.26,0.27-0.5,0.44-0.45c0.38,0.11,0.54-0.32,0.86-0.27
			C99.15,122.44,99.15,122.44,98.4,122.64z"/>
		<path class="st0" d="M100.8,118.08c-0.04-0.19,0.17-0.22,0.22-0.37c-0.1-0.19-0.29-0.08-0.46-0.11c-0.09-0.39,0.18-0.55,0.51-0.84
			c0.15,0.41,0.41,0.65,0.87,0.85C101.47,117.86,101.2,118.11,100.8,118.08z"/>
		<path class="st0" d="M122.64,31.44c0.2,0,0.4,0,0.6,0c0.27,0.18-0.02,0.54,0.25,0.74c0.17,0.13,0.41,0.27,0.35,0.57
			c-0.23,0.27-0.41,0.1-0.57-0.09c-0.21-0.25-0.2-0.68-0.63-0.75C122.64,31.76,122.64,31.6,122.64,31.44z"/>
		<path class="st0" d="M104,115.01c0.33,0,0.59,0,0.88,0c-0.32,0.52-0.79,0.75-1.34,0.95C103.23,115.35,103.91,115.28,104,115.01z"
			/>
		<path class="st0" d="M91.18,119.99c0,0.28,0,0.47,0,0.65c-0.39,0.1-0.68,0.53-1.14,0.25C90.47,120.09,90.47,120.09,91.18,119.99z"
			/>
		<path class="st0" d="M131.77,78.24c0.18,0,0.26,0,0.39,0c0.29,0.62-0.39,1.09-0.18,1.68c-0.18,0-0.26,0-0.39,0
			C131.31,79.3,131.98,78.83,131.77,78.24z"/>
		<path class="st0" d="M108.24,115.2c-0.21,0.49-0.69,0.73-1,1.12c-0.12,0.15-0.29,0.05-0.44,0.08
			C106.89,115.53,107.57,115.37,108.24,115.2z"/>
		<path class="st0" d="M86.23,119.52c-0.47,0.64-1.11,0.54-1.55,0.78c-0.19-0.14-0.22-0.25-0.2-0.38c0.04-0.05,0.07-0.15,0.13-0.16
			c0.33-0.05,0.68,0.11,0.97-0.23C85.66,119.44,85.94,119.52,86.23,119.52z"/>
		<path class="st0" d="M130.79,78.72c0.21,0,0.29,0,0.43,0c0,0.44,0,0.89,0,1.41c-0.03,0.05-0.15,0.03-0.34,0.03
			C130.71,79.7,130.86,79.2,130.79,78.72z"/>
		<path class="st0" d="M94.49,123.1c-0.44,0.54-0.96,0.73-1.55,0.74c-0.03-0.15-0.04-0.23-0.07-0.38
			C93.41,123.34,93.95,123.22,94.49,123.1z"/>
		<path class="st0" d="M126.52,68.46c0.15-0.07,0.26-0.09,0.4,0.02c0,0.42,0,0.87,0,1.3c-0.15,0.07-0.26,0.09-0.4-0.02
			C126.52,69.34,126.52,68.89,126.52,68.46z"/>
		<path class="st0" d="M54,121.86c0,0.26,0,0.34,0,0.48c-0.67,0.15-1.18-0.16-1.74-0.57C52.93,121.47,53.42,122.22,54,121.86z"/>
		<path class="st0" d="M129.08,70.07c-0.61-0.6-0.61-1.06,0-1.66C129.08,68.98,129.08,69.5,129.08,70.07z"/>
		<path class="st0" d="M108.24,116.4c0.02-0.8,0.66-0.82,1.2-0.96c0,0.11,0,0.23,0,0.42C108.94,115.79,108.8,116.51,108.24,116.4z"
			/>
		<path class="st0" d="M87.36,6.48c-0.03-0.15,0.06-0.23,0.18-0.23c0.31-0.01,0.62-0.01,0.92-0.01c0.1,0.19,0.35,0.24,0.34,0.48
			c-0.4,0-0.8,0-1.2,0C87.61,6.55,87.53,6.47,87.36,6.48z"/>
		<ellipse class="st0" cx="132" cy="70.92" rx="0.29" ry="0.8"/>
		<path class="st0" d="M97.68,122.4c0,0.12,0,0.24,0,0.37c-0.38,0.1-0.67,0.52-1.15,0.29c-0.07-0.19-0.12-0.44,0.17-0.4
			C97.08,122.7,97.31,122.29,97.68,122.4z"/>
		<path class="st0" d="M131.8,67.88c0-0.77,0-1.54,0-2.32c0.28,0.35,0.18,0.76,0.19,1.15c0.02,0.39,0,0.78,0,1.16
			C131.93,67.88,131.87,67.88,131.8,67.88z"/>
		<path class="st0" d="M130.43,70.8c0.11,0.64,0.11,0.64-0.47,0.96C129.85,71.12,129.85,71.12,130.43,70.8z"/>
		<path class="st0" d="M31.79,35.73c0.29-0.4,0.2-0.9,0.74-0.93c0.24,0.31,0.04,0.61,0.15,0.93C32.36,35.73,32.14,35.73,31.79,35.73
			z"/>
		<path class="st0" d="M126.72,38.16c0.08-0.37-0.19-0.64-0.34-0.91c-0.1-0.18-0.14-0.34-0.14-0.53c0.11,0,0.23,0,0.34,0
			c0.4,0.41,0.41,0.92,0.38,1.44C126.88,38.16,126.8,38.16,126.72,38.16z"/>
		<path class="st0" d="M55.2,122.16c-0.42,0.04-0.76-0.36-1.2-0.24c0-0.15,0-0.29,0-0.53c0.48,0.12,0.8,0.4,1.2,0.32
			C55.2,121.92,55.2,122.04,55.2,122.16z"/>
		<path class="st0" d="M120,36.16c0.57,0.39,0.53,0.82,0.42,1.27c-0.12,0.01-0.2,0.01-0.27,0.01c-0.05-0.05-0.13-0.1-0.14-0.16
			C119.99,36.93,120,36.59,120,36.16z"/>
		<path class="st0" d="M130.28,67.49c0,0.69,0,1.38,0,2.08C130,68.88,130.12,68.17,130.28,67.49z"/>
		<path class="st0" d="M46.02,23.25c0.03,0.17,0.05,0.28,0.09,0.49c-0.44-0.11-0.76,0.19-1.18,0.29c-0.03-0.17-0.05-0.28-0.09-0.49
			C45.29,23.65,45.6,23.34,46.02,23.25z"/>
		<path class="st0" d="M119.51,95.76c0.02-0.49,0.32-0.83,0.59-1.25c0.38,0.54-0.13,0.86-0.21,1.25
			C119.76,95.76,119.64,95.76,119.51,95.76z"/>
		<path class="st0" d="M99.67,122.24c-0.04-0.23-0.05-0.3-0.08-0.45c0.38-0.08,0.67-0.54,1.2-0.25
			C100.53,121.93,100.12,122.03,99.67,122.24z"/>
		<path class="st0" d="M126.5,71.19c-0.08-0.27,0.13-0.36,0.21-0.52c0.08-0.16-0.06-0.38,0.15-0.64c0.07,0.2,0.13,0.38,0.19,0.56
			c0.2,0.23-0.24,0.35-0.15,0.76C126.67,71.26,126.57,71.22,126.5,71.19z"/>
		<path class="st0" d="M64.12,121.04c0.52-0.29,0.91,0.11,1.36,0.23C64.88,121.47,64.88,121.47,64.12,121.04z"/>
		<path class="st0" d="M56.64,122.88c-0.03,0.15,0.06,0.22,0.18,0.24c0.16,0.02,0.32,0.02,0.3,0.24c-0.53-0.01-1.1,0.09-1.44-0.48
			C56,122.88,56.32,122.88,56.64,122.88z"/>
		<path class="st0" d="M111.6,104.4c-0.11,0.44-0.11,0.44-0.55,0.72c-0.33-0.18-0.1-0.49-0.17-0.72
			C111.12,104.4,111.36,104.4,111.6,104.4z"/>
		<path class="st0" d="M107.52,17.52c0.06-0.25-0.51-0.35-0.12-0.72c0.27,0.33,0.67,0.53,0.84,0.96c-0.16,0-0.32,0-0.48,0
			C107.77,17.59,107.69,17.51,107.52,17.52z"/>
		<path class="st0" d="M56.84,123.36c0.55,0,0.83,0,1.12,0c0.11,0.11,0.22,0.22,0.33,0.34c-0.04,0.04-0.08,0.12-0.13,0.13
			C57.72,123.9,57.43,123.61,56.84,123.36z"/>
		<path class="st0" d="M85.68,125.65c0-0.09,0-0.17,0-0.26c0.31-0.22,0.63-0.06,1.03-0.1C86.38,125.72,86.1,125.93,85.68,125.65z"/>
		<path class="st0" d="M122.16,28.8c0.54,0.05,0.67,0.18,0.72,0.72C122.34,29.47,122.21,29.34,122.16,28.8z"/>
		<path class="st0" d="M130.34,82.66c0-0.45,0-0.71,0-0.95c0.09-0.16,0.22-0.1,0.33-0.12c0.25,0.18,0.1,0.41,0.1,0.63
			C130.66,82.34,130.55,82.45,130.34,82.66z"/>
		<path class="st0" d="M114.96,99.6c0.15,0.03,0.32-0.07,0.48,0.13c0.04,0.43-0.4,0.54-0.59,0.84c-0.21-0.16-0.1-0.34-0.13-0.48
			C115.08,100.06,114.92,99.78,114.96,99.6z"/>
		<path class="st0" d="M50.04,122.05c0.6,0.18,0.89,0.31,0.82,0.83C50.37,122.9,50.24,122.62,50.04,122.05z"/>
		<path class="st0" d="M67.85,123.87c0.1,0.2,0.08,0.34-0.05,0.45c-0.37,0.16-0.4-0.54-0.84-0.28
			C67.27,123.75,67.58,123.86,67.85,123.87z"/>
		<path class="st0" d="M53.79,123.75c-0.51,0.22-0.76,0-0.99-0.28C53.22,123.14,53.49,123.43,53.79,123.75z"/>
		<path class="st0" d="M60.02,122.36c0-0.15,0-0.25,0-0.4c0.24,0,0.45,0,0.68,0c0,0.15,0,0.25,0,0.4
			C60.46,122.36,60.25,122.36,60.02,122.36z"/>
		<path class="st0" d="M130.29,61.6c0.15-0.18,0.29-0.2,0.45-0.11c0.15,0.29,0.01,0.58-0.06,0.89
			C130.54,62.12,130.41,61.85,130.29,61.6z"/>
		<path class="st0" d="M123.61,98.99c0.17-0.14,0.28-0.4,0.57-0.35c0.25,0.18,0.11,0.42,0.1,0.63c-0.23,0.28-0.19-0.08-0.29-0.12
			C123.87,99.1,123.68,99.17,123.61,98.99z"/>
		<path class="st0" d="M120,101.28c0,0.2,0,0.4,0,0.61c-0.11,0.11-0.22,0.22-0.34,0.33c-0.04-0.04-0.13-0.08-0.13-0.13
			C119.48,101.7,119.59,101.4,120,101.28z"/>
		<path class="st0" d="M65.74,125.13c0,0.1,0,0.2,0,0.3c-0.24,0.13-0.45,0.14-0.68,0c0-0.1,0-0.2,0-0.3
			C65.3,125,65.51,124.99,65.74,125.13z"/>
		<path class="st0" d="M45.36,117.6c0.41-0.02,0.83-0.05,0.96,0.48C45.91,118.1,45.49,118.13,45.36,117.6z"/>
		<path class="st0" d="M131.68,63.56c-0.26-0.09-0.4-0.28-0.42-0.54c0.12-0.16,0.26-0.17,0.41-0.1
			C131.81,63.13,131.79,63.34,131.68,63.56z"/>
		<path class="st0" d="M107.28,113.04c0,0.14,0,0.28,0,0.48c-0.28,0-0.5,0-0.72,0C106.65,113.14,106.91,113,107.28,113.04z"/>
		<path class="st0" d="M89.97,123.34c0.3,0.06,0.3,0.21,0.25,0.4c-0.16,0.2-0.39,0.08-0.61,0.07
			C89.57,123.47,89.87,123.47,89.97,123.34z"/>
		<path class="st0" d="M127.7,96.11c0-0.39,0-0.57,0-0.75c0.2-0.12,0.37-0.19,0.46,0.1C128.19,95.74,127.93,95.83,127.7,96.11z"/>
		<path class="st0" d="M118.8,106.32c-0.04-0.37,0.1-0.63,0.48-0.72c0,0.22,0,0.44,0,0.72C119.08,106.32,118.94,106.32,118.8,106.32
			z"/>
		<path class="st0" d="M51.12,119.49c-0.22,0-0.44,0-0.64,0c-0.1-0.21-0.16-0.38,0.12-0.45C50.9,119.06,51.04,119.25,51.12,119.49z"
			/>
		<path class="st0" d="M97.2,120c0.08-0.16,0.16-0.32,0.24-0.48c0.12,0,0.24,0,0.36,0c0.14,0.11,0.16,0.25,0.08,0.41
			C97.67,120.07,97.43,119.97,97.2,120z"/>
		<path class="st0" d="M121.73,37.2c0.19,0.17,0.46,0.25,0.44,0.46c-0.04,0.27-0.18,0.27-0.37,0.24
			C121.54,37.73,121.75,37.44,121.73,37.2z"/>
		<path class="st0" d="M126,36.48c-0.38-0.09-0.52-0.35-0.48-0.72c0.14,0,0.28,0,0.48,0C126,36.04,126,36.26,126,36.48z"/>
		<path class="st0" d="M125.04,35.04c0.14,0,0.28,0,0.48,0c0,0.28,0,0.5,0,0.72C125.14,35.67,125,35.41,125.04,35.04z"/>
		<path class="st0" d="M124.99,35.04c-0.19-0.17-0.46-0.25-0.44-0.41c0.04-0.33,0.19-0.32,0.36-0.31
			C125.18,34.51,124.97,34.8,124.99,35.04z"/>
		<path class="st0" d="M105.12,114.05c-0.17,0.19-0.25,0.46-0.46,0.44c-0.27-0.04-0.27-0.18-0.24-0.37
			C104.59,113.86,104.88,114.07,105.12,114.05z"/>
		<path class="st0" d="M129.21,87.82c-0.13-0.24-0.13-0.45-0.01-0.66c0.15-0.08,0.29-0.06,0.4,0.08
			C129.63,87.55,129.43,87.68,129.21,87.82z"/>
		<path class="st0" d="M112.73,110.02c0.35-0.35,0.55-0.55,0.79-0.78C113.54,109.71,113.27,109.84,112.73,110.02z"/>
		<path class="st0" d="M124.13,33.36c0.19,0.17,0.46,0.25,0.44,0.41c-0.04,0.33-0.19,0.32-0.36,0.31
			C123.94,33.89,124.15,33.6,124.13,33.36z"/>
		<path class="st0" d="M117.85,107.51c-0.01,0.15-0.02,0.3-0.04,0.46c-0.14,0.01-0.25,0.02-0.34,0.03
			c-0.15-0.13-0.15-0.26-0.04-0.45C117.55,107.53,117.69,107.52,117.85,107.51z"/>
		<path class="st0" d="M96.01,123.61c-0.15-0.01-0.3-0.02-0.46-0.04c-0.01-0.14-0.02-0.25-0.03-0.34c0.13-0.15,0.26-0.15,0.45-0.04
			C95.99,123.31,96,123.46,96.01,123.61z"/>
		<path class="st0" d="M111.59,104.41c0.01-0.15,0.02-0.3,0.04-0.46c0.14-0.01,0.25-0.02,0.34-0.03c0.15,0.13,0.15,0.26,0.04,0.45
			C111.89,104.39,111.75,104.4,111.59,104.41z"/>
		<path class="st0" d="M59.78,122.57c-0.42,0.15-0.53,0.02-0.5-0.29c0.11-0.14,0.25-0.15,0.44-0.06
			C59.73,122.3,59.75,122.41,59.78,122.57z"/>
		<path class="st0" d="M114.48,108.72c-0.14,0-0.28,0-0.48,0c0.11-0.21,0.17-0.34,0.24-0.48c0.14,0,0.28,0,0.48,0
			C114.62,108.45,114.55,108.58,114.48,108.72z"/>
		<path class="st0" d="M79.37,121.8c0.39-0.17,0.71-0.17,1.1,0C80.08,121.97,79.76,121.97,79.37,121.8z"/>
		<path class="st0" d="M102.72,119.76c-0.1,0.3-0.25,0.54-0.65,0.45c-0.14-0.23,0.27-0.25,0.17-0.45
			C102.4,119.76,102.56,119.76,102.72,119.76z"/>
		<path class="st0" d="M103.44,119.04c0.14,0.03,0.31-0.07,0.44,0.08c-0.12,0.31-0.35,0.45-0.68,0.4
			C103.28,119.36,103.36,119.2,103.44,119.04z"/>
		<path class="st0" d="M119.29,96.23c-0.01,0.15-0.02,0.3-0.04,0.46c-0.14,0.01-0.25,0.02-0.34,0.03c-0.15-0.13-0.15-0.26-0.04-0.45
			C118.99,96.25,119.13,96.24,119.29,96.23z"/>
		<circle class="st0" cx="118.56" cy="106.56" r="0.34"/>
		<path class="st0" d="M110.28,114c-0.08,0-0.16,0-0.24,0c-0.14-0.11-0.16-0.24-0.09-0.39c0.08-0.15,0.21-0.08,0.32-0.1
			C110.46,113.68,110.45,113.84,110.28,114z"/>
		<path class="st0" d="M49.68,115.8c-0.03-0.31,0.09-0.44,0.39-0.33c0.14,0.08,0.08,0.21,0.09,0.32
			C50,115.98,49.84,115.97,49.68,115.8z"/>
		<path class="st0" d="M128.36,76.6c0,0.29,0,0.58,0,1.07C128.07,77.21,128.18,76.9,128.36,76.6z"/>
		<path class="st0" d="M46.08,115.44c-0.08-0.16-0.16-0.32-0.24-0.48c0.37-0.04,0.63,0.1,0.72,0.48
			C46.4,115.44,46.24,115.44,46.08,115.44z"/>
		<circle class="st0" cx="108.48" cy="114.96" r="0.34"/>
		<path class="st0" d="M113.27,101.99c0.15,0.01,0.3,0.02,0.46,0.04c0.01,0.14,0.02,0.25,0.03,0.34c-0.13,0.15-0.26,0.15-0.45,0.04
			C113.29,102.29,113.28,102.15,113.27,101.99z"/>
		<path class="st0" d="M83.23,126.07c-0.29,0.26-0.58,0.11-0.87,0.1C82.63,125.9,82.94,126.05,83.23,126.07z"/>
		<path class="st0" d="M114.47,108.71c0.15,0.01,0.3,0.02,0.46,0.04c0.01,0.14,0.02,0.25,0.03,0.34c-0.13,0.15-0.26,0.15-0.45,0.04
			C114.49,109.01,114.48,108.87,114.47,108.71z"/>
		<path class="st0" d="M98.23,120.85c-0.19,0.12-0.34,0.21-0.49,0.3C97.64,120.84,97.6,120.58,98.23,120.85z"/>
		<path class="st0" d="M35.97,29.51c0.17,0.01,0.31,0.02,0.46,0.03c0,0.24-0.2,0.3-0.29,0.44C35.89,29.89,36.06,29.67,35.97,29.51z"
			/>
		<path class="st0" d="M130.92,64.09c-0.19-0.25-0.19-0.49,0-0.74C131.11,63.6,131.11,63.84,130.92,64.09z"/>
		<path class="st0" d="M114.2,108.21c-0.18,0-0.41,0-0.68,0C113.93,107.99,113.93,107.99,114.2,108.21z"/>
		<path class="st0" d="M113.52,30.24c-0.16,0-0.32,0-0.48,0c0-0.16,0-0.32,0-0.48C113.3,29.82,113.46,29.98,113.52,30.24z"/>
		<path class="st0" d="M85.89,126.11c0.29-0.15,0.5-0.16,0.78,0.01C86.41,126.27,86.19,126.3,85.89,126.11z"/>
		<path class="st0" d="M84.25,127.08c-0.25,0.19-0.49,0.19-0.74,0C83.76,126.89,84,126.89,84.25,127.08z"/>
		<path class="st0" d="M50.99,4.84c0.27-0.32,0.43-0.34,0.59-0.18C51.49,4.91,51.27,4.76,50.99,4.84z"/>
		<path class="st0" d="M51.12,4.8c0,0.08,0,0.16,0,0.24c-0.16,0-0.32,0-0.48,0C50.66,4.68,50.94,4.84,51.12,4.8z"/>
		<path class="st0" d="M49.18,121.82c-0.17,0.15-0.4,0.16-0.44-0.04c-0.05-0.25,0.21-0.04,0.32-0.1
			C49.07,121.68,49.14,121.77,49.18,121.82z"/>
		<path class="st0" d="M121.92,28.32c0.36,0.02,0.2,0.3,0.24,0.48C121.8,28.78,121.96,28.5,121.92,28.32z"/>
		<path class="st0" d="M55.22,122.74c0.17-0.15,0.4-0.16,0.44,0.04c0.05,0.25-0.21,0.04-0.32,0.1
			C55.33,122.88,55.26,122.79,55.22,122.74z"/>
		<path class="st0" d="M94.79,123.01c0.18-0.2,0.31-0.13,0.47-0.08C95.16,123.23,95.01,123.15,94.79,123.01z"/>
		<path class="st0" d="M114.5,19.54c0.17-0.15,0.4-0.16,0.44,0.04c0.05,0.25-0.21,0.04-0.32,0.1
			C114.61,19.68,114.54,19.59,114.5,19.54z"/>
		<path class="st0" d="M131.89,64.33c-0.18-0.19-0.13-0.32-0.07-0.47C132.11,63.97,132.04,64.12,131.89,64.33z"/>
		<path class="st0" d="M126.96,38.16c0.36,0.02,0.2,0.3,0.24,0.48c-0.08,0-0.16,0-0.24,0C126.96,38.48,126.96,38.32,126.96,38.16z"
			/>
		<path class="st0" d="M119.28,96.24c0.04-0.18-0.12-0.46,0.24-0.48C119.48,95.94,119.64,96.22,119.28,96.24z"/>
		<path class="st0" d="M115.78,108.22c-0.15-0.17-0.16-0.4,0.04-0.44c0.25-0.05,0.04,0.21,0.1,0.32
			C115.92,108.11,115.83,108.18,115.78,108.22z"/>
		<path class="st0" d="M112.46,109.45c0.15,0.17,0.16,0.41-0.03,0.44c-0.25,0.05-0.04-0.21-0.1-0.32
			C112.32,109.57,112.41,109.5,112.46,109.45z"/>
		<path class="st0" d="M110.99,113.08c0.27-0.32,0.43-0.34,0.59-0.18C111.49,113.15,111.27,113,110.99,113.08z"/>
		<path class="st0" d="M41.76,113.04c0.18,0.04,0.46-0.12,0.48,0.24C42.06,113.24,41.78,113.4,41.76,113.04z"/>
		<path class="st0" d="M43.66,113.42c-0.17,0.15-0.4,0.16-0.44-0.04c-0.05-0.25,0.21-0.04,0.32-0.1
			C43.55,113.28,43.62,113.37,43.66,113.42z"/>
		<path class="st0" d="M113.76,114.24c-0.02,0.36-0.3,0.2-0.48,0.24C113.3,114.12,113.58,114.28,113.76,114.24z"/>
		<path class="st0" d="M108.59,114.76c0.27-0.32,0.43-0.34,0.59-0.18C109.09,114.83,108.87,114.68,108.59,114.76z"/>
		<path class="st0" d="M110.3,114.49c0.15,0.17,0.16,0.41-0.03,0.44c-0.25,0.05-0.04-0.21-0.1-0.32
			C110.16,114.61,110.25,114.54,110.3,114.49z"/>
		<path class="st0" d="M109.68,115.2c0.02-0.36,0.3-0.2,0.48-0.24C110.14,115.32,109.86,115.16,109.68,115.2z"/>
		<path class="st0" d="M106.19,117.64c0.27-0.32,0.43-0.34,0.59-0.18C106.69,117.71,106.47,117.56,106.19,117.64z"/>
		<path class="st0" d="M100.8,118.08c-0.02,0.36-0.3,0.2-0.48,0.24C100.34,117.96,100.62,118.12,100.8,118.08z"/>
		<path class="st0" d="M114,30.24c0,0.08,0,0.16,0,0.24c-0.18-0.04-0.46,0.12-0.48-0.24C113.68,30.24,113.84,30.24,114,30.24z"/>
		<path class="st0" d="M105.01,118.52c-0.27,0.32-0.43,0.34-0.59,0.18C104.51,118.45,104.73,118.6,105.01,118.52z"/>
		<path class="st0" d="M104.51,119.32c0.27-0.32,0.43-0.34,0.59-0.18C105.01,119.39,104.79,119.24,104.51,119.32z"/>
		<path class="st0" d="M104.64,119.28c-0.02,0.36-0.3,0.2-0.48,0.24C104.18,119.16,104.46,119.32,104.64,119.28z"/>
		<path class="st0" d="M103.2,119.52c-0.02,0.36-0.3,0.2-0.48,0.24c0-0.08,0-0.16,0-0.24C102.88,119.52,103.04,119.52,103.2,119.52z
			"/>
		<path class="st0" d="M102.11,120.76c0.27-0.32,0.43-0.34,0.59-0.18C102.61,120.83,102.39,120.68,102.11,120.76z"/>
		<path class="st0" d="M96.48,12.24c0.17-0.01,0.25,0.07,0.24,0.24C96.55,12.49,96.47,12.41,96.48,12.24z"/>
		<path class="st0" d="M124.08,99.36c0.02,0.12-0.03,0.19-0.14,0.21c-0.02,0-0.07-0.05-0.07-0.07
			C123.89,99.39,123.96,99.34,124.08,99.36z"/>
		<path class="st0" d="M112.08,113.76c-0.01-0.17,0.07-0.25,0.24-0.24C112.33,113.69,112.25,113.77,112.08,113.76z"/>
		<path class="st0" d="M105.36,113.76c0.01,0.17-0.07,0.25-0.24,0.24C105.11,113.83,105.19,113.75,105.36,113.76z"/>
		<path class="st0" d="M106.32,113.76c0.02,0.12-0.03,0.19-0.14,0.21c-0.02,0-0.07-0.05-0.07-0.07
			C106.13,113.79,106.2,113.74,106.32,113.76z"/>
		<path class="st0" d="M111.84,114c-0.01-0.17,0.07-0.25,0.24-0.24C112.09,113.93,112.01,114.01,111.84,114z"/>
		<path class="st0" d="M26.88,43.44c0.01,0.17-0.07,0.25-0.24,0.24C26.63,43.51,26.71,43.43,26.88,43.44z"/>
		<path class="st0" d="M111.84,114c0.02,0.12-0.03,0.19-0.14,0.21c-0.02,0-0.07-0.05-0.07-0.07
			C111.65,114.03,111.72,113.98,111.84,114z"/>
		<path class="st0" d="M113.76,114.24c-0.02-0.12,0.03-0.19,0.14-0.21c0.02,0,0.07,0.05,0.07,0.07
			C113.95,114.21,113.88,114.26,113.76,114.24z"/>
		<path class="st0" d="M111.12,114.48c-0.02-0.12,0.03-0.19,0.14-0.21c0.02,0,0.07,0.05,0.07,0.07
			C111.31,114.45,111.24,114.5,111.12,114.48z"/>
		<path class="st0" d="M116.64,105.84c-0.01-0.17,0.07-0.25,0.24-0.24C116.89,105.77,116.81,105.85,116.64,105.84z"/>
		<path class="st0" d="M111.12,114.48c0.02,0.12-0.03,0.19-0.14,0.21c-0.02,0-0.07-0.05-0.07-0.07
			C110.93,114.51,111,114.46,111.12,114.48z"/>
		<path class="st0" d="M113.04,114.72c-0.01-0.17,0.07-0.25,0.24-0.24C113.29,114.65,113.21,114.73,113.04,114.72z"/>
		<path class="st0" d="M45.84,114.96c-0.12,0.02-0.19-0.03-0.21-0.14c0-0.02,0.05-0.07,0.07-0.07
			C45.81,114.77,45.86,114.84,45.84,114.96z"/>
		<path class="st0" d="M124.92,32.4c-0.11-0.08-0.11-0.16,0-0.24C125.03,32.24,125.03,32.32,124.92,32.4z"/>
		<path class="st0" d="M31.68,36c-0.01-0.17,0.07-0.25,0.24-0.24C31.93,35.93,31.85,36.01,31.68,36z"/>
		<path class="st0" d="M34.32,32.16c0.01,0.17-0.07,0.25-0.24,0.24C34.07,32.23,34.15,32.15,34.32,32.16z"/>
		<path class="st0" d="M117.84,107.52c-0.02-0.12,0.03-0.19,0.14-0.21c0.02,0,0.07,0.05,0.07,0.07
			C118.03,107.49,117.96,107.54,117.84,107.52z"/>
		<path class="st0" d="M126,36.48c0.17-0.01,0.25,0.07,0.24,0.24C126.07,36.73,125.99,36.65,126,36.48z"/>
		<path class="st0" d="M109.44,115.44c-0.01-0.17,0.07-0.25,0.24-0.24C109.69,115.37,109.61,115.45,109.44,115.44z"/>
		<path class="st0" d="M112.32,115.44c-0.02-0.12,0.03-0.19,0.14-0.21c0.02,0,0.07,0.05,0.07,0.07
			C112.51,115.41,112.44,115.46,112.32,115.44z"/>
		<path class="st0" d="M121.44,36.96c-0.17,0.01-0.25-0.07-0.24-0.24C121.37,36.71,121.45,36.79,121.44,36.96z"/>
		<path class="st0" d="M46.56,115.44c0.17-0.01,0.25,0.07,0.24,0.24C46.63,115.69,46.55,115.61,46.56,115.44z"/>
		<path class="st0" d="M121.44,36.96c0.17-0.01,0.25,0.07,0.24,0.24C121.51,37.21,121.43,37.13,121.44,36.96z"/>
		<path class="st0" d="M124.56,31.68c0.12-0.02,0.19,0.03,0.21,0.14c0,0.02-0.05,0.07-0.07,0.07
			C124.59,31.87,124.54,31.8,124.56,31.68z"/>
		<path class="st0" d="M112.32,115.44c0.02,0.12-0.03,0.19-0.14,0.21c-0.02,0-0.07-0.05-0.07-0.07
			C112.13,115.47,112.2,115.42,112.32,115.44z"/>
		<path class="st0" d="M124.56,31.68c-0.17,0.01-0.25-0.07-0.24-0.24C124.49,31.43,124.57,31.51,124.56,31.68z"/>
		<path class="st0" d="M111.6,115.92c-0.02-0.12,0.03-0.19,0.14-0.21c0.02,0,0.07,0.05,0.07,0.07
			C111.79,115.89,111.72,115.94,111.6,115.92z"/>
		<path class="st0" d="M111.6,115.92c0.02,0.12-0.03,0.19-0.14,0.21c-0.02,0-0.07-0.05-0.07-0.07
			C111.41,115.95,111.48,115.9,111.6,115.92z"/>
		<path class="st0" d="M124.08,31.2c0.17-0.01,0.25,0.07,0.24,0.24C124.15,31.45,124.07,31.37,124.08,31.2z"/>
		<path class="st0" d="M127.2,38.64c0.12-0.02,0.19,0.03,0.21,0.14c0,0.02-0.05,0.07-0.07,0.07
			C127.23,38.83,127.18,38.76,127.2,38.64z"/>
		<path class="st0" d="M108.24,116.4c0.02,0.12-0.03,0.19-0.14,0.21c-0.02,0-0.07-0.05-0.07-0.07
			C108.05,116.43,108.12,116.38,108.24,116.4z"/>
		<path class="st0" d="M107.52,116.76c0.08-0.11,0.16-0.11,0.24,0C107.68,116.87,107.6,116.87,107.52,116.76z"/>
		<path class="st0" d="M114.24,30.72c0.12-0.02,0.19,0.03,0.21,0.14c0,0.02-0.05,0.07-0.07,0.07
			C114.27,30.91,114.22,30.84,114.24,30.72z"/>
		<path class="st0" d="M45.36,117.6c-0.12,0.02-0.19-0.03-0.21-0.14c0-0.02,0.05-0.07,0.07-0.07
			C45.33,117.41,45.38,117.48,45.36,117.6z"/>
		<path class="st0" d="M119.52,105.36c0.01,0.17-0.07,0.25-0.24,0.24C119.27,105.43,119.35,105.35,119.52,105.36z"/>
		<path class="st0" d="M119.52,105.36c-0.02-0.12,0.03-0.19,0.14-0.21c0.02,0,0.07,0.05,0.07,0.07
			C119.71,105.33,119.64,105.38,119.52,105.36z"/>
		<path class="st0" d="M114,30.48c0.17-0.01,0.25,0.07,0.24,0.24C114.07,30.73,113.99,30.65,114,30.48z"/>
		<path class="st0" d="M100.56,117.6c0.02,0.12-0.03,0.19-0.14,0.21c-0.02,0-0.07-0.05-0.07-0.07
			C100.37,117.63,100.44,117.58,100.56,117.6z"/>
		<path class="st0" d="M46.56,118.32c-0.17,0.01-0.25-0.07-0.24-0.24C46.49,118.07,46.57,118.15,46.56,118.32z"/>
		<path class="st0" d="M124.8,30.48c-0.17,0.01-0.25-0.07-0.24-0.24C124.73,30.23,124.81,30.31,124.8,30.48z"/>
		<path class="st0" d="M124.08,33.36c-0.12,0.02-0.19-0.03-0.21-0.14c0-0.02,0.05-0.07,0.07-0.07
			C124.05,33.17,124.1,33.24,124.08,33.36z"/>
		<path class="st0" d="M23.76,118.56c-0.12,0.02-0.19-0.03-0.21-0.14c0-0.02,0.05-0.07,0.07-0.07
			C23.73,118.37,23.78,118.44,23.76,118.56z"/>
		<path class="st0" d="M100.32,118.32c0.02,0.12-0.03,0.19-0.14,0.21c-0.02,0-0.07-0.05-0.07-0.07
			C100.13,118.35,100.2,118.3,100.32,118.32z"/>
		<path class="st0" d="M120,101.28c-0.01-0.17,0.07-0.25,0.24-0.24C120.25,101.21,120.17,101.29,120,101.28z"/>
		<path class="st0" d="M104.88,118.56c-0.01-0.17,0.07-0.25,0.24-0.24C105.13,118.49,105.05,118.57,104.88,118.56z"/>
		<path class="st0" d="M24,118.8c-0.17,0.01-0.25-0.07-0.24-0.24C23.93,118.55,24.01,118.63,24,118.8z"/>
		<path class="st0" d="M42.48,118.56c0.17-0.01,0.25,0.07,0.24,0.24C42.55,118.81,42.47,118.73,42.48,118.56z"/>
		<path class="st0" d="M41.52,112.8c0.17-0.01,0.25,0.07,0.24,0.24C41.59,113.05,41.51,112.97,41.52,112.8z"/>
		<path class="st0" d="M24,118.8c0.12-0.02,0.19,0.03,0.21,0.14c0,0.02-0.05,0.07-0.07,0.07C24.03,118.99,23.98,118.92,24,118.8z"/>
		<path class="st0" d="M107.28,113.04c-0.02-0.12,0.03-0.19,0.14-0.21c0.02,0,0.07,0.05,0.07,0.07
			C107.47,113.01,107.4,113.06,107.28,113.04z"/>
		<path class="st0" d="M112.32,109.92c0.02,0.12-0.03,0.19-0.14,0.21c-0.02,0-0.07-0.05-0.07-0.07
			C112.13,109.95,112.2,109.9,112.32,109.92z"/>
		<path class="st0" d="M118.32,106.8c0.02,0.12-0.03,0.19-0.14,0.21c-0.02,0-0.07-0.05-0.07-0.07
			C118.13,106.83,118.2,106.78,118.32,106.8z"/>
		<path class="st0" d="M51.12,119.52c0.12-0.02,0.19,0.03,0.21,0.14c0,0.02-0.05,0.07-0.07,0.07
			C51.15,119.71,51.1,119.64,51.12,119.52z"/>
		<path class="st0" d="M43.2,113.28c-0.12,0.02-0.19-0.03-0.21-0.14c0-0.02,0.05-0.07,0.07-0.07
			C43.17,113.09,43.22,113.16,43.2,113.28z"/>
		<path class="st0" d="M120.24,101.04c-0.02-0.12,0.03-0.19,0.14-0.21c0.02,0,0.07,0.05,0.07,0.07
			C120.43,101.01,120.36,101.06,120.24,101.04z"/>
		<path class="st0" d="M111.12,113.04c0.02,0.12-0.03,0.19-0.14,0.21c-0.02,0-0.07-0.05-0.07-0.07
			C110.93,113.07,111,113.02,111.12,113.04z"/>
		<path class="st0" d="M104.16,119.52c0.01,0.17-0.07,0.25-0.24,0.24C103.91,119.59,103.99,119.51,104.16,119.52z"/>
		<path class="st0" d="M103.92,119.76c0.02,0.12-0.03,0.19-0.14,0.21c-0.02,0-0.07-0.05-0.07-0.07
			C103.73,119.79,103.8,119.74,103.92,119.76z"/>
		<path class="st0" d="M119.76,23.52c-0.17,0.01-0.25-0.07-0.24-0.24C119.69,23.27,119.77,23.35,119.76,23.52z"/>
		<path class="st0" d="M97.2,120c0.02,0.12-0.03,0.19-0.14,0.21c-0.02,0-0.07-0.05-0.07-0.07C97.01,120.03,97.08,119.98,97.2,120z"
			/>
		<path class="st0" d="M42.24,113.28c0.17-0.01,0.25,0.07,0.24,0.24C42.31,113.53,42.23,113.45,42.24,113.28z"/>
		<path class="st0" d="M102.24,120.72c0.02,0.12-0.03,0.19-0.14,0.21c-0.02,0-0.07-0.05-0.07-0.07
			C102.05,120.75,102.12,120.7,102.24,120.72z"/>
		<path class="st0" d="M48.72,121.68c-0.12,0.02-0.19-0.03-0.21-0.14c0-0.02,0.05-0.07,0.07-0.07
			C48.69,121.49,48.74,121.56,48.72,121.68z"/>
		<path class="st0" d="M53.28,121.44c0.12-0.02,0.19,0.03,0.21,0.14c0,0.02-0.05,0.07-0.07,0.07
			C53.31,121.63,53.26,121.56,53.28,121.44z"/>
		<path class="st0" d="M117.36,29.28c-0.12,0.02-0.19-0.03-0.21-0.14c0-0.02,0.05-0.07,0.07-0.07
			C117.33,29.09,117.38,29.16,117.36,29.28z"/>
		<path class="st0" d="M105.96,113.52c-0.11-0.08-0.11-0.16,0-0.24C106.07,113.36,106.07,113.44,105.96,113.52z"/>
		<path class="st0" d="M33.84,122.16c0.12-0.02,0.19,0.03,0.21,0.14c0,0.02-0.05,0.07-0.07,0.07
			C33.87,122.35,33.82,122.28,33.84,122.16z"/>
		<path class="st0" d="M115.2,19.92c-0.17,0.01-0.25-0.07-0.24-0.24C115.13,19.67,115.21,19.75,115.2,19.92z"/>
		<path class="st0" d="M105.36,113.76c-0.02-0.12,0.03-0.19,0.14-0.21c0.02,0,0.07,0.05,0.07,0.07
			C105.55,113.73,105.48,113.78,105.36,113.76z"/>
		<path class="st0" d="M98.4,122.64c0.02,0.12-0.03,0.19-0.14,0.21c-0.02,0-0.07-0.05-0.07-0.07
			C98.21,122.67,98.28,122.62,98.4,122.64z"/>
		<path class="st0" d="M106.32,113.76c-0.01-0.17,0.07-0.25,0.24-0.24C106.57,113.69,106.49,113.77,106.32,113.76z"/>
		<path class="st0" d="M96,123.6c0.12-0.02,0.19,0.03,0.21,0.14c0,0.02-0.05,0.07-0.07,0.07C96.03,123.79,95.98,123.72,96,123.6z"/>
		<path class="st0" d="M90,17.28c0.01,0.12-0.02,0.22-0.16,0.19c-0.04-0.01-0.05-0.12-0.08-0.19C89.84,17.28,89.92,17.28,90,17.28z"
			/>
		<path class="st0" d="M86.4,16.8c0.12-0.02,0.19,0.03,0.21,0.14c0,0.02-0.05,0.07-0.07,0.07C86.43,16.99,86.38,16.92,86.4,16.8z"/>
		<path class="st0" d="M113.04,114.72c0.02,0.12-0.03,0.19-0.14,0.21c-0.02,0-0.07-0.05-0.07-0.07
			C112.85,114.75,112.92,114.7,113.04,114.72z"/>
		<path class="st0" d="M90.85,11.96c0.32-0.24,0.6-0.19,0.72-0.45c0.11,0.12,0.21,0.23,0.35,0.39
			C91.61,12.09,91.31,11.98,90.85,11.96z"/>
		<path class="st0" d="M108.24,19.2c-0.01,0.17,0.07,0.25,0.24,0.24c0,0.08,0,0.16,0,0.24c-0.37,0.04-0.63-0.1-0.72-0.48
			C107.92,19.2,108.08,19.2,108.24,19.2z"/>
		<path class="st0" d="M110.64,23.74c-0.19,0-0.29,0-0.36,0c-0.16-0.1-0.1-0.23-0.12-0.36C110.46,23.2,110.66,23.2,110.64,23.74z"/>
		<path class="st0" d="M111.6,22.56c0.18,0.04,0.46-0.12,0.48,0.24C111.9,22.76,111.62,22.92,111.6,22.56z"/>
		<path class="st0" d="M109.24,23.41c-0.32-0.27-0.34-0.43-0.18-0.59C109.31,22.91,109.16,23.13,109.24,23.41z"/>
		<path class="st0" d="M109.44,23.52c0.17-0.01,0.25,0.07,0.24,0.24C109.51,23.77,109.43,23.69,109.44,23.52z"/>
		<path class="st0" d="M109.2,23.28c0.17-0.01,0.25,0.07,0.24,0.24C109.27,23.53,109.19,23.45,109.2,23.28z"/>
		<path class="st0" d="M105.84,20.4c0.12-0.02,0.19,0.03,0.21,0.14c0,0.02-0.05,0.07-0.07,0.07
			C105.87,20.59,105.82,20.52,105.84,20.4z"/>
		<path class="st0" d="M108.48,19.68c0.17-0.01,0.25,0.07,0.24,0.24C108.55,19.93,108.47,19.85,108.48,19.68z"/>
		<path class="st0" d="M107.52,18.96c0.17-0.01,0.25,0.07,0.24,0.24C107.59,19.21,107.51,19.13,107.52,18.96z"/>
		<path class="st0" d="M110.59,26.84c-0.21,0-0.43,0-0.72,0C110.14,26.5,110.39,26.75,110.59,26.84z"/>
		<path class="st0" d="M110.88,27.36c-0.12,0.02-0.19-0.03-0.21-0.14c0-0.02,0.05-0.07,0.07-0.07
			C110.85,27.17,110.9,27.24,110.88,27.36z"/>
		<path class="st0" d="M42.24,24.48c0.02,0.12-0.03,0.19-0.14,0.21c-0.02,0-0.07-0.05-0.07-0.07
			C42.05,24.51,42.12,24.46,42.24,24.48z"/>
		<path class="st0" d="M121.92,30.48c-0.12,0.02-0.19-0.03-0.21-0.14c0-0.02,0.05-0.07,0.07-0.07
			C121.89,30.29,121.94,30.36,121.92,30.48z"/>
		<path class="st0" d="M119.28,26.88c-0.16-0.08-0.32-0.16-0.48-0.24c0-0.12,0-0.24,0-0.36c0.11-0.14,0.25-0.16,0.41-0.08
			C119.35,26.41,119.25,26.65,119.28,26.88z"/>
		<path class="st0" d="M111.84,19.68c-0.01,0.17,0.07,0.25,0.24,0.24c0,0.08,0,0.16,0,0.24c-0.16,0-0.32,0-0.48,0
			c0.01-0.17-0.07-0.25-0.24-0.24C111.38,19.56,111.66,19.72,111.84,19.68z"/>
	</g>
</g>
</svg>
